<?xml version="1.0" encoding="UTF-8" standalone="no"?>
<!-- Uploaded to: SVG Repo, www.svgrepo.com, Generator: SVG Repo Mixer Tools -->

<svg
   fill="#000000"
   height="800px"
   width="800px"
   version="1.1"
   id="Capa_1"
   viewBox="0 0 234.409 234.409"
   xml:space="preserve"
   sodipodi:docname="severe.svg"
   inkscape:version="1.4 (86a8ad7, 2024-10-11)"
   xmlns:inkscape="http://www.inkscape.org/namespaces/inkscape"
   xmlns:sodipodi="http://sodipodi.sourceforge.net/DTD/sodipodi-0.dtd"
   xmlns="http://www.w3.org/2000/svg"
   xmlns:svg="http://www.w3.org/2000/svg"><defs
   id="defs4">
	
	
	
	
	
</defs><sodipodi:namedview
   id="namedview4"
   pagecolor="#ffffff"
   bordercolor="#000000"
   borderopacity="0.25"
   inkscape:showpageshadow="2"
   inkscape:pageopacity="0.0"
   inkscape:pagecheckerboard="0"
   inkscape:deskcolor="#d1d1d1"
   inkscape:zoom="1.45875"
   inkscape:cx="400"
   inkscape:cy="400"
   inkscape:window-width="3440"
   inkscape:window-height="1369"
   inkscape:window-x="-8"
   inkscape:window-y="-8"
   inkscape:window-maximized="1"
   inkscape:current-layer="Capa_1" />
<path
   d="m 117.204,30.677 c -47.711,0 -86.527,38.816 -86.527,86.528 0,47.711 38.816,86.526 86.527,86.526 47.711,0 86.527,-38.815 86.527,-86.526 0.001,-47.711 -38.816,-86.528 -86.527,-86.528 z m 0,158.055 c -39.44,0 -71.527,-32.086 -71.527,-71.526 0,-39.441 32.087,-71.528 71.527,-71.528 39.44,0 71.527,32.087 71.527,71.528 0.001,39.439 -32.086,71.526 -71.527,71.526 z"
   id="path1" /><path
   d="m 117.204,140.207 c 4.143,0 7.5,-3.358 7.5,-7.5 v -63.88 c 0,-4.142 -3.357,-7.5 -7.5,-7.5 -4.143,0 -7.5,3.358 -7.5,7.5 v 63.88 c 0,4.142 3.358,7.5 7.5,7.5 z"
   id="path4" /><circle
   cx="117.204"
   cy="156.254"
   r="9.3290005"
   id="circle4" />
</svg>
