<?xml version="1.0" encoding="utf-8"?>
<!-- Generator: Adobe Illustrator 26.5.0, SVG Export Plug-In . SVG Version: 6.00 Build 0)  -->
<svg version="1.1" id="Layer_1" xmlns="http://www.w3.org/2000/svg" xmlns:xlink="http://www.w3.org/1999/xlink" x="0px" y="0px"
	 viewBox="0 0 1452.5 552" style="enable-background:new 0 0 1452.5 552;" xml:space="preserve">
<style type="text/css">
	.st0{fill:#2D3B3E;}
</style>
<g>
	<polygon class="st0" points="992.6,329.1 924.1,329.1 924.1,422.5 1154.2,422.5 1154.2,329.1 1085.5,329.1 1085.5,253.2 
		1154.2,253.2 1154.2,160.7 992.6,160.7 	"/>
	<polygon class="st0" points="1392.1,329.1 1392.1,160.7 1229.9,160.7 1229.9,253.2 1298.6,253.2 1298.6,329.1 1229.9,329.1 
		1229.9,422.5 1452.5,422.5 1452.5,329.1 	"/>
	<g>
		<g>
			<g>
				<path class="st0" d="M257.2,38.8l-0.2-0.4H147.6L0.3,421.2L0,422.1h106.9l26.4-66.4h136l24.7,66l0.2,0.4h107.4L257.2,38.8z
					 M161.2,278.3l40.6-120.4h0.1L242,278.3H161.2z"/>
			</g>
		</g>
	</g>
	<path class="st0" d="M614.2,188L614.2,188c-16.8-23.6-43.4-36-76.9-36c-37.9,0-72.3,15-97.1,42.2c-23.9,26.3-37,61.6-37,99.5
		c0,77.4,54.2,133.6,129,133.6c32.8,0,57.4-10.4,82-34.6v10.6c0,38.4-7.1,73.9-58.7,73.9c-8.9,0-18.4-2.2-26.1-6
		c-6.1-3.1-14-8.9-16.9-19.4l-0.1-0.5H407.7l0.1,0.7c7.7,64.9,82.2,99.9,148.6,100h0.4c101.7-0.1,151.1-51.1,151.1-155.9V160.6
		h-93.6L614.2,188L614.2,188z M558.6,347.3c-35.1,0-58.7-23.2-58.7-57.7c0-34.3,24.1-58.2,58.7-58.2s58.7,23.9,58.7,58.2
		C617.2,324.1,593.7,347.3,558.6,347.3z"/>
	<path class="st0" d="M947.7,247.6V157h-18.4c-38.4,0-67.6,15.9-84.5,46.1v-42.5h-93.6v261.5h93.6V316.5c0-53.9,19.5-78,63.2-78
		c14.1,0,26.1,1.5,38.7,8.5L947.7,247.6z"/>
	<path class="st0" d="M1048.9,127.7c35.1,0,63.9-28.8,63.9-63.8c0-35-28.8-63.8-63.8-63.8h-0.1c-35,0-63.8,28.8-63.8,63.8
		C985.1,98.9,1013.8,127.7,1048.9,127.7z"/>
	<path class="st0" d="M1338.9,127.7c35.1,0,63.8-28.8,63.8-63.8c0-35-28.8-63.8-63.8-63.8h-0.1c-35,0-63.8,28.8-63.8,63.8
		C1275,98.9,1303.8,127.7,1338.9,127.7z"/>
</g>
</svg>
