<?xml version="1.0" encoding="UTF-8" standalone="no"?>
<svg
   viewBox="0 0 399.99999 199.991"
   preserveAspectRatio="xMinYMid"
   version="1.1"
   id="svg20"
   sodipodi:docname="basf.svg"
   width="400"
   height="199.991"
   inkscape:version="1.4 (86a8ad7, 2024-10-11)"
   xmlns:inkscape="http://www.inkscape.org/namespaces/inkscape"
   xmlns:sodipodi="http://sodipodi.sourceforge.net/DTD/sodipodi-0.dtd"
   xmlns="http://www.w3.org/2000/svg"
   xmlns:svg="http://www.w3.org/2000/svg">
  <sodipodi:namedview
     id="namedview20"
     pagecolor="#ffffff"
     bordercolor="#000000"
     borderopacity="0.25"
     inkscape:showpageshadow="2"
     inkscape:pageopacity="0.0"
     inkscape:pagecheckerboard="0"
     inkscape:deskcolor="#d1d1d1"
     inkscape:zoom="2.6868769"
     inkscape:cx="-16.003711"
     inkscape:cy="168.41114"
     inkscape:window-width="3440"
     inkscape:window-height="1369"
     inkscape:window-x="-8"
     inkscape:window-y="-8"
     inkscape:window-maximized="1"
     inkscape:current-layer="svg20" />
  <defs
     id="defs1">
    <style
       id="style1">.cls-2{fill:#fff;}</style>
  </defs>
  <title
     id="title1">BASFw_wh100tr</title>
  <rect
     style="fill:#21a1d0;fill-opacity:1;stroke-width:100;stroke-linecap:round;stroke-miterlimit:20"
     id="rect20"
     width="400"
     height="199.991"
     x="0"
     y="0" />
  <g
     id="BASFw_wh100tr_4c"
     transform="matrix(1.4111007,0,0,1.4111007,49.999996,49.999973)"
     style="stroke-width:0.708667">
    <g
       class="cls-1"
       id="g1"
       style="stroke-width:0.708667">
      <path
         class="cls-2"
         d="M 0.17,1.5 V 39.58 H 38.25 V 1.5 Z M 26.53,27.86 H 11.89 V 13.22 h 14.64 z"
         transform="translate(-0.17,-0.36)"
         id="path1"
         style="stroke-width:0.708667" />
      <rect
         class="cls-2"
         x="49.799999"
         y="12.86"
         width="14.65"
         height="14.65"
         id="rect1"
         style="stroke-width:0.708667" />
    </g>
    <path
       class="cls-2"
       d="m 76.33,1.5 h 21.22 c 7.79,0 11.35,5.19 11.35,9.94 0,3.42 -1.32,5.62 -4.84,7.68 4.44,1.64 6.86,4.61 6.86,9.18 0,5.47 -4,11.28 -13.34,11.28 H 76.32 Z M 87.92,31 h 7.68 a 3.68,3.68 0 0 0 4,-3.68 3.3,3.3 0 0 0 -3.6,-3.18 h -8.08 z m 0,-14.49 h 6.17 c 2.82,0 3.94,-1.31 3.94,-3.24 A 2.84,2.84 0 0 0 94.9,10.34 H 88 Z"
       transform="translate(-0.17,-0.36)"
       id="path2"
       style="stroke-width:0.708667" />
    <path
       class="cls-2"
       d="m 123,1.5 h 12.27 l 14,38 h -12.63 l -1.85,-5.69 H 123 l -1.56,5.66 H 109 Z m 5.63,11.29 -3.23,12.7 h 6.92 z"
       transform="translate(-0.17,-0.36)"
       id="path3"
       style="stroke-width:0.708667" />
    <path
       class="cls-2"
       d="m 168.8,12.81 h 11.7 c 0,-6.46 -4.86,-12.45 -16.39,-12.45 -12.65,0 -16.56,7 -16.56,12.09 0,8.23 10.08,10.42 10.39,10.52 1.5,0.48 7.76,2.15 9.32,2.71 1.36,0.48 2.65,1.57 2.65,3 0,2.22 -2.65,3.29 -4.85,3.29 -1.42,0 -6.18,-0.47 -6.18,-5.51 H 146.8 c 0,6.69 4.61,14.19 17.53,14.19 14.27,0 17.25,-8.51 17.25,-13 a 10.5,10.5 0 0 0 -6.92,-9.74 c -2.9,-1.17 -7.72,-2.2 -10.13,-2.9 -1.22,-0.36 -5.28,-1.18 -5.28,-3.66 0,-3.17 5.23,-2.76 4.47,-2.76 2.36,-0.02 5.08,1.31 5.08,4.22 z"
       transform="translate(-0.17,-0.36)"
       id="path4"
       style="stroke-width:0.708667" />
    <polygon
       class="cls-2"
       points="183.34,39.21 183.4,1.13 212.6,1.13 212.6,11.18 195.07,11.18 195.07,17.88 210.7,17.88 210.7,27.48 195.01,27.48 195.01,39.21 "
       id="polygon4"
       style="stroke-width:0.708667" />
    <polygon
       class="cls-2"
       points="4.24,72 6.43,72 10.26,58.1 10.4,58.1 10.41,58.15 14.18,72 16.38,72 20.77,55.58 18.7,55.58 15.34,69.35 15.2,69.35 15.18,69.3 11.53,55.58 9.24,55.58 5.54,69.35 5.39,69.35 5.38,69.3 2.14,55.58 0.03,55.58 "
       id="polygon5"
       style="stroke-width:0.708667" />
    <path
       class="cls-2"
       d="M 30.66,62.54 A 5.23,5.23 0 0 0 29,60.88 4.89,4.89 0 0 0 26.38,60.23 5.49,5.49 0 0 0 24.15,60.69 5.22,5.22 0 0 0 22.37,62 a 5.78,5.78 0 0 0 -1.16,2 7.05,7.05 0 0 0 -0.42,2.48 9.76,9.76 0 0 0 0.41,2.51 5.42,5.42 0 0 0 1.06,2 4.79,4.79 0 0 0 1.74,1.17 6.08,6.08 0 0 0 2.47,0.46 5.4,5.4 0 0 0 3.35,-1 4.66,4.66 0 0 0 1.69,-2.92 h -1.8 a 2.88,2.88 0 0 1 -1.07,1.75 3.51,3.51 0 0 1 -2.09,0.59 4.16,4.16 0 0 1 -1.72,-0.33 3.4,3.4 0 0 1 -1.2,-0.89 A 3.56,3.56 0 0 1 22.94,68.55 5,5 0 0 1 22.75,67 v 0 h 9 a 9.6,9.6 0 0 0 -0.2,-2.22 6.63,6.63 0 0 0 -0.87,-2.21 m -7.91,2.81 v -0.06 a 4.46,4.46 0 0 1 0.29,-1.32 3.41,3.41 0 0 1 0.71,-1.1 3.25,3.25 0 0 1 1.07,-0.74 3.38,3.38 0 0 1 1.41,-0.28 3.31,3.31 0 0 1 1.38,0.28 3.54,3.54 0 0 1 1.09,0.73 3.48,3.48 0 0 1 0.73,1.09 4.15,4.15 0 0 1 0.31,1.35 v 0.06 z"
       transform="translate(-0.17,-0.36)"
       id="path5"
       style="stroke-width:0.708667" />
    <path
       class="cls-2"
       d="m 45.57,71 a 3.4,3.4 0 0 1 -1.64,-0.38 3.21,3.21 0 0 1 -1.1,-1 4.34,4.34 0 0 1 -0.63,-1.42 7,7 0 0 1 -0.2,-1.64 8.64,8.64 0 0 1 0.19,-1.77 4.33,4.33 0 0 1 0.62,-1.51 3.27,3.27 0 0 1 1.19,-1.04 3.86,3.86 0 0 1 1.82,-0.4 3.08,3.08 0 0 1 2,0.64 3.17,3.17 0 0 1 1,1.75 h 1.91 a 4.61,4.61 0 0 0 -0.54,-1.75 4,4 0 0 0 -1.11,-1.26 4.39,4.39 0 0 0 -1.55,-0.75 7.22,7.22 0 0 0 -1.9,-0.24 5.88,5.88 0 0 0 -2.45,0.49 4.9,4.9 0 0 0 -1.75,1.35 5.86,5.86 0 0 0 -1,2 8.73,8.73 0 0 0 -0.35,2.5 8,8 0 0 0 0.32,2.43 5.37,5.37 0 0 0 1.05,2 4.63,4.63 0 0 0 1.74,1.23 6.19,6.19 0 0 0 2.4,0.44 5.14,5.14 0 0 0 3.58,-1.19 5.41,5.41 0 0 0 1.63,-3.32 h -1.89 a 3.49,3.49 0 0 1 -1,2.14 3.29,3.29 0 0 1 -2.32,0.78"
       transform="translate(-0.17,-0.36)"
       id="path6"
       style="stroke-width:0.708667" />
    <path
       class="cls-2"
       d="M 56.83,60.87 A 5.4,5.4 0 0 0 55,63 v 0 H 54.94 V 60.51 H 53.2 V 72.36 H 55 V 67.1 A 8.56,8.56 0 0 1 55.27,65 4,4 0 0 1 56,63.49 a 3.22,3.22 0 0 1 1.37,-1 5.77,5.77 0 0 1 2,-0.33 v -2 h -0.14 a 4.24,4.24 0 0 0 -2.41,0.64"
       transform="translate(-0.17,-0.36)"
       id="path7"
       style="stroke-width:0.708667" />
    <path
       class="cls-2"
       d="M 69.44,62.54 A 5.29,5.29 0 0 0 67.77,60.88 4.89,4.89 0 0 0 65.15,60.23 5.46,5.46 0 0 0 62.92,60.69 5.36,5.36 0 0 0 61.15,62 5.92,5.92 0 0 0 60,64 a 7.05,7.05 0 0 0 -0.42,2.48 9.77,9.77 0 0 0 0.4,2.51 5.59,5.59 0 0 0 1.07,2 4.79,4.79 0 0 0 1.75,1.28 6,6 0 0 0 2.47,0.46 5.39,5.39 0 0 0 3.34,-1 4.63,4.63 0 0 0 1.7,-2.92 H 68.49 A 2.82,2.82 0 0 1 67.43,70.56 3.54,3.54 0 0 1 65.34,71.15 4.12,4.12 0 0 1 63.62,70.82 3.43,3.43 0 0 1 62.41,69.93 3.39,3.39 0 0 1 61.73,68.66 5,5 0 0 1 61.54,67 v 0 h 9 a 9.57,9.57 0 0 0 -0.19,-2.22 6.65,6.65 0 0 0 -0.88,-2.21 m -7.9,2.81 v -0.06 a 4.17,4.17 0 0 1 0.28,-1.32 3.41,3.41 0 0 1 0.71,-1.1 3.15,3.15 0 0 1 1.07,-0.74 3.37,3.37 0 0 1 1.4,-0.28 3.24,3.24 0 0 1 1.38,0.28 3.38,3.38 0 0 1 1.82,1.82 4.16,4.16 0 0 1 0.32,1.35 v 0.06 z"
       transform="translate(-0.17,-0.36)"
       id="path8"
       style="stroke-width:0.708667" />
    <path
       class="cls-2"
       d="m 82.47,70.66 a 4.41,4.41 0 0 1 -0.08,-1 v -6.2 A 3.14,3.14 0 0 0 82,61.8 a 2.77,2.77 0 0 0 -1,-1 4.09,4.09 0 0 0 -1.42,-0.46 9.47,9.47 0 0 0 -3.49,0.09 4.69,4.69 0 0 0 -1.58,0.67 3.47,3.47 0 0 0 -1.09,1.22 4.17,4.17 0 0 0 -0.46,1.78 h 1.85 a 2,2 0 0 1 0.93,-1.78 4.26,4.26 0 0 1 2.12,-0.49 7.43,7.43 0 0 1 0.94,0.07 2.68,2.68 0 0 1 0.88,0.29 1.61,1.61 0 0 1 0.65,0.62 2,2 0 0 1 0.26,1.08 1.12,1.12 0 0 1 -0.35,0.89 2.29,2.29 0 0 1 -0.91,0.46 8.12,8.12 0 0 1 -1.29,0.23 c -0.48,0 -1,0.13 -1.54,0.24 -0.54,0.11 -1,0.21 -1.49,0.35 a 4.08,4.08 0 0 0 -1.28,0.6 3,3 0 0 0 -0.89,1 3.4,3.4 0 0 0 -0.34,1.63 3.49,3.49 0 0 0 0.3,1.52 2.9,2.9 0 0 0 0.84,1 3.62,3.62 0 0 0 1.24,0.57 6.68,6.68 0 0 0 1.52,0.17 6.23,6.23 0 0 0 2.3,-0.42 4.8,4.8 0 0 0 1.87,-1.39 l 0.11,-0.13 v 0.17 a 1.8,1.8 0 0 0 0.43,1.36 1.65,1.65 0 0 0 1.17,0.41 2.75,2.75 0 0 0 1.36,-0.28 v -1.4 a 2,2 0 0 1 -0.54,0.09 c -0.35,0 -0.55,-0.12 -0.61,-0.37 m -1.93,-2.4 a 2.3,2.3 0 0 1 -0.21,0.91 2.71,2.71 0 0 1 -0.67,0.91 3.54,3.54 0 0 1 -1.15,0.68 4.75,4.75 0 0 1 -1.69,0.27 4.41,4.41 0 0 1 -0.89,-0.09 2.48,2.48 0 0 1 -0.76,-0.31 1.81,1.81 0 0 1 -0.53,-0.57 1.72,1.72 0 0 1 -0.2,-0.85 A 1.86,1.86 0 0 1 74.79,68 2.15,2.15 0 0 1 75.68,67.32 4.84,4.84 0 0 1 76.9,67 c 0.42,-0.07 0.87,-0.13 1.33,-0.19 a 11,11 0 0 0 1.26,-0.21 2.37,2.37 0 0 0 1,-0.39 l 0.1,-0.08 z"
       transform="translate(-0.17,-0.36)"
       id="path9"
       style="stroke-width:0.708667" />
    <path
       class="cls-2"
       d="m 101.79,62.54 a 5.29,5.29 0 0 0 -1.67,-1.66 4.89,4.89 0 0 0 -2.62,-0.65 5.42,5.42 0 0 0 -2.23,0.46 5.26,5.26 0 0 0 -1.77,1.31 6.12,6.12 0 0 0 -1.16,2 7.29,7.29 0 0 0 -0.41,2.48 9.91,9.91 0 0 0 0.4,2.51 5.51,5.51 0 0 0 1.07,2 4.79,4.79 0 0 0 1.75,1.28 6,6 0 0 0 2.47,0.46 5.37,5.37 0 0 0 3.34,-1 4.72,4.72 0 0 0 1.7,-2.92 h -1.82 A 2.88,2.88 0 0 1 99.77,70.56 3.48,3.48 0 0 1 97.69,71.15 4.12,4.12 0 0 1 96,70.7 3.43,3.43 0 0 1 94.79,69.81 3.39,3.39 0 0 1 94.11,68.54 4.67,4.67 0 0 1 93.89,67 v 0 h 9 a 9,9 0 0 0 -0.2,-2.22 6.63,6.63 0 0 0 -0.87,-2.21 m -7.86,2.81 V 65.32 A 3.92,3.92 0 0 1 94.24,64 3.41,3.41 0 0 1 94.95,62.9 3.15,3.15 0 0 1 96,62.12 a 3.38,3.38 0 0 1 1.41,-0.28 3.31,3.31 0 0 1 1.38,0.28 3.38,3.38 0 0 1 1.08,0.73 3.31,3.31 0 0 1 0.73,1.09 4.1,4.1 0 0 1 0.32,1.35 v 0.06 z"
       transform="translate(-0.17,-0.36)"
       id="path10"
       style="stroke-width:0.708667" />
    <path
       class="cls-2"
       d="m 116.73,71 a 3.33,3.33 0 0 1 -1.63,-0.38 3.24,3.24 0 0 1 -1.11,-1 4.58,4.58 0 0 1 -0.63,-1.42 6.88,6.88 0 0 1 -0.19,-1.64 8.57,8.57 0 0 1 0.18,-1.77 4.66,4.66 0 0 1 0.62,-1.51 3.35,3.35 0 0 1 1.17,-1.07 3.86,3.86 0 0 1 1.82,-0.4 3.08,3.08 0 0 1 2,0.64 3.05,3.05 0 0 1 1,1.75 h 1.92 a 4.62,4.62 0 0 0 -0.55,-1.75 4,4 0 0 0 -1.1,-1.26 4.61,4.61 0 0 0 -1.56,-0.75 7.2,7.2 0 0 0 -1.89,-0.24 5.9,5.9 0 0 0 -2.46,0.49 5,5 0 0 0 -1.75,1.35 5.86,5.86 0 0 0 -1,2 8.73,8.73 0 0 0 -0.34,2.5 8.29,8.29 0 0 0 0.35,2.45 5.53,5.53 0 0 0 1,1.91 4.63,4.63 0 0 0 1.74,1.23 6.22,6.22 0 0 0 2.4,0.44 5.18,5.18 0 0 0 3.59,-1.19 5.46,5.46 0 0 0 1.69,-3.27 h -1.88 a 3.55,3.55 0 0 1 -1,2.14 3.27,3.27 0 0 1 -2.32,0.78"
       transform="translate(-0.17,-0.36)"
       id="path11"
       style="stroke-width:0.708667" />
    <path
       class="cls-2"
       d="m 133.34,61.44 a 3.2,3.2 0 0 0 -1.25,-0.89 5.23,5.23 0 0 0 -2,-0.32 5.34,5.34 0 0 0 -1.09,0.12 4.47,4.47 0 0 0 -1.07,0.35 3.63,3.63 0 0 0 -0.92,0.62 2.64,2.64 0 0 0 -0.7,0.91 v 0 h -0.09 v -6.29 h -1.84 v 16.42 h 1.84 v -6.7 a 4.88,4.88 0 0 1 0.23,-1.51 3.36,3.36 0 0 1 0.67,-1.22 3.17,3.17 0 0 1 1.12,-0.81 4.3,4.3 0 0 1 1.59,-0.28 2.49,2.49 0 0 1 1.83,0.67 2.42,2.42 0 0 1 0.67,1.81 v 8 h 1.85 v -7.77 a 7.4,7.4 0 0 0 -0.2,-1.76 3.24,3.24 0 0 0 -0.67,-1.35"
       transform="translate(-0.17,-0.36)"
       id="path12"
       style="stroke-width:0.708667" />
    <path
       class="cls-2"
       d="m 146.57,62.54 a 5.29,5.29 0 0 0 -1.67,-1.66 4.89,4.89 0 0 0 -2.62,-0.65 5.5,5.5 0 0 0 -2.24,0.46 5.32,5.32 0 0 0 -1.76,1.31 6.12,6.12 0 0 0 -1.16,2 7.29,7.29 0 0 0 -0.41,2.48 9.84,9.84 0 0 0 0.4,2.51 5.59,5.59 0 0 0 1.07,2 4.79,4.79 0 0 0 1.75,1.28 6,6 0 0 0 2.46,0.46 5.4,5.4 0 0 0 3.35,-1 4.72,4.72 0 0 0 1.7,-2.92 h -1.82 a 2.88,2.88 0 0 1 -1.07,1.75 3.49,3.49 0 0 1 -2.09,0.59 4.11,4.11 0 0 1 -1.71,-0.33 3.35,3.35 0 0 1 -1.21,-0.89 3.39,3.39 0 0 1 -0.68,-1.27 4.67,4.67 0 0 1 -0.19,-1.51 V 67 h 9 a 9,9 0 0 0 -0.2,-2.22 6.63,6.63 0 0 0 -0.87,-2.21 m -7.91,2.81 V 65.32 A 3.92,3.92 0 0 1 139,64 a 3.39,3.39 0 0 1 0.7,-1.1 3.42,3.42 0 0 1 2.48,-1 3.24,3.24 0 0 1 1.38,0.28 3.38,3.38 0 0 1 1.82,1.82 4.16,4.16 0 0 1 0.32,1.35 v 0.06 z"
       transform="translate(-0.17,-0.36)"
       id="path13"
       style="stroke-width:0.708667" />
    <path
       class="cls-2"
       d="m 165.61,61 a 3.55,3.55 0 0 0 -1.23,-0.61 6.67,6.67 0 0 0 -1.62,-0.19 4.4,4.4 0 0 0 -2.13,0.53 4.21,4.21 0 0 0 -1.57,1.48 l -0.07,0.11 V 62.2 a 2.53,2.53 0 0 0 -1.24,-1.54 4.29,4.29 0 0 0 -2,-0.46 4.44,4.44 0 0 0 -3.89,2 v 0 h -0.07 V 60.51 H 150 v 11.85 h 1.84 V 65 a 2.8,2.8 0 0 1 0.18,-0.88 3.43,3.43 0 0 1 1.58,-1.88 3,3 0 0 1 1.51,-0.36 2.6,2.6 0 0 1 1.12,0.21 1.61,1.61 0 0 1 0.71,0.57 2.27,2.27 0 0 1 0.37,0.87 5.2,5.2 0 0 1 0.11,1.08 v 7.79 h 1.84 V 65 a 3.09,3.09 0 0 1 0.85,-2.26 3.18,3.18 0 0 1 2.34,-0.86 2.77,2.77 0 0 1 1.2,0.22 1.72,1.72 0 0 1 0.73,0.59 2,2 0 0 1 0.36,0.87 5.87,5.87 0 0 1 0.09,1 v 7.79 h 1.85 v -8.71 a 3.88,3.88 0 0 0 -0.29,-1.56 2.61,2.61 0 0 0 -0.79,-1"
       transform="translate(-0.17,-0.36)"
       id="path14"
       style="stroke-width:0.708667" />
    <path
       class="cls-2"
       d="m 171.76,58.23 h -1.84 v -2.29 h 1.84 z m 0,2.28 h -1.84 v 11.85 h 1.84 z"
       transform="translate(-0.17,-0.36)"
       id="path15"
       style="stroke-width:0.708667" />
    <path
       class="cls-2"
       d="m 182.78,71.84 a 3.42,3.42 0 0 0 1.16,-1.14 3.21,3.21 0 0 0 0.45,-1.77 2.78,2.78 0 0 0 -0.33,-1.41 A 3.09,3.09 0 0 0 183.2,66.58 4.76,4.76 0 0 0 182,66 13.26,13.26 0 0 0 180.56,65.6 l -1.39,-0.31 a 8.63,8.63 0 0 1 -1.26,-0.37 3,3 0 0 1 -0.94,-0.57 1.31,1.31 0 0 1 -0.13,-1.69 1.75,1.75 0 0 1 0.62,-0.48 3.16,3.16 0 0 1 0.84,-0.25 4.94,4.94 0 0 1 1.88,0 3.29,3.29 0 0 1 0.89,0.34 2.12,2.12 0 0 1 0.67,0.63 2,2 0 0 1 0.3,0.94 h 1.85 a 4.26,4.26 0 0 0 -0.45,-1.73 3.07,3.07 0 0 0 -1,-1.13 4.4,4.4 0 0 0 -1.49,-0.6 9.84,9.84 0 0 0 -1.87,-0.17 7.16,7.16 0 0 0 -1.57,0.19 5.33,5.33 0 0 0 -1.51,0.6 3.17,3.17 0 0 0 -1,1 2.84,2.84 0 0 0 -0.4,1.52 2.54,2.54 0 0 0 0.57,1.76 3.74,3.74 0 0 0 1.42,1 10.57,10.57 0 0 0 1.88,0.56 18.16,18.16 0 0 1 1.89,0.44 5,5 0 0 1 1.47,0.64 1.39,1.39 0 0 1 0.61,1.21 1.49,1.49 0 0 1 -0.3,1 1.69,1.69 0 0 1 -0.73,0.56 3.59,3.59 0 0 1 -1,0.26 6.26,6.26 0 0 1 -2.17,0 2.9,2.9 0 0 1 -1,-0.39 2.13,2.13 0 0 1 -0.76,-0.73 2.4,2.4 0 0 1 -0.31,-1.08 h -1.84 a 4.37,4.37 0 0 0 0.45,1.8 3.44,3.44 0 0 0 1.1,1.23 4.44,4.44 0 0 0 1.57,0.67 9,9 0 0 0 3.7,0 5,5 0 0 0 1.62,-0.61"
       transform="translate(-0.17,-0.36)"
       id="path16"
       style="stroke-width:0.708667" />
    <path
       class="cls-2"
       d="m 189.38,56.92 h -1.84 v 3.59 h -2 v 1.61 h 2 v 7.69 a 4.31,4.31 0 0 0 0.16,1.32 1.47,1.47 0 0 0 0.48,0.76 1.85,1.85 0 0 0 0.85,0.37 6.87,6.87 0 0 0 1.3,0.1 h 1.44 v -1.61 h -0.84 c -0.31,0 -0.57,0 -0.76,0 a 1.08,1.08 0 0 1 -0.48,-0.16 0.66,0.66 0 0 1 -0.25,-0.36 2.29,2.29 0 0 1 -0.06,-0.58 v -7.5 h 2.46 v -1.64 h -2.46 z"
       transform="translate(-0.17,-0.36)"
       id="path17"
       style="stroke-width:0.708667" />
    <path
       class="cls-2"
       d="m 88.18,56.92 h -1.85 v 3.59 h -2 v 1.61 h 2 v 7.69 a 4.65,4.65 0 0 0 0.16,1.32 1.61,1.61 0 0 0 0.48,0.76 1.9,1.9 0 0 0 0.85,0.37 7,7 0 0 0 1.3,0.1 h 1.44 v -1.61 h -0.84 c -0.31,0 -0.56,0 -0.76,0 a 1.18,1.18 0 0 1 -0.48,-0.16 0.64,0.64 0 0 1 -0.24,-0.36 2.29,2.29 0 0 1 -0.06,-0.58 v -7.5 h 2.46 v -1.64 h -2.46 z"
       transform="translate(-0.17,-0.36)"
       id="path18"
       style="stroke-width:0.708667" />
    <path
       class="cls-2"
       d="m 196.42,63.14 v 0 h -0.07 v -2.63 h -1.75 v 11.85 h 1.85 v -5.12 a 8.62,8.62 0 0 1 0.23,-2.07 4,4 0 0 1 0.76,-1.54 3.22,3.22 0 0 1 1.37,-1 5.71,5.71 0 0 1 2,-0.33 v -2 a 4.38,4.38 0 0 0 -2.54,0.64 5.47,5.47 0 0 0 -1.82,2.13"
       transform="translate(-0.17,-0.36)"
       id="path19"
       style="stroke-width:0.708667" />
    <path
       class="cls-2"
       d="m 206.88,75.46 a 13.32,13.32 0 0 0 0.68,-1.48 l 5.18,-13.47 h -2 l -3.36,9.8 h -0.14 v 0 l -3.49,-9.76 h -2.08 l 4.72,11.85 v 0 l -0.81,2 a 2.33,2.33 0 0 1 -0.67,0.84 1.66,1.66 0 0 1 -1,0.29 1.86,1.86 0 0 1 -0.61,-0.1 l -0.49,-0.16 V 77 a 2.65,2.65 0 0 0 0.62,0.14 5.34,5.34 0 0 0 0.69,0 3.51,3.51 0 0 0 1.14,-0.17 2.68,2.68 0 0 0 0.87,-0.54 4.24,4.24 0 0 0 0.73,-1"
       transform="translate(-0.17,-0.36)"
       id="path20"
       style="stroke-width:0.708667" />
  </g>
</svg>
