<?xml version="1.0" encoding="UTF-8" standalone="no"?>
<svg
   viewBox="0 0 280 42.33"
   version="1.1"
   id="svg6"
   sodipodi:docname="branston.svg"
   inkscape:version="1.4 (86a8ad7, 2024-10-11)"
   xmlns:inkscape="http://www.inkscape.org/namespaces/inkscape"
   xmlns:sodipodi="http://sodipodi.sourceforge.net/DTD/sodipodi-0.dtd"
   xmlns="http://www.w3.org/2000/svg"
   xmlns:svg="http://www.w3.org/2000/svg">
  <sodipodi:namedview
     id="namedview6"
     pagecolor="#ffffff"
     bordercolor="#000000"
     borderopacity="0.25"
     inkscape:showpageshadow="2"
     inkscape:pageopacity="0.0"
     inkscape:pagecheckerboard="0"
     inkscape:deskcolor="#d1d1d1"
     inkscape:zoom="5.8857143"
     inkscape:cx="100.83738"
     inkscape:cy="32.876214"
     inkscape:window-width="3440"
     inkscape:window-height="1369"
     inkscape:window-x="-8"
     inkscape:window-y="-8"
     inkscape:window-maximized="1"
     inkscape:current-layer="svg6" />
  <defs
     id="defs1">
    <style
       id="style1">.cls-1,.cls-2{fill:#fff;}.cls-1{fill-rule:evenodd;}.cls-3{fill:#8dc043;}</style>
  </defs>
  <title
     id="title1">logo</title>
  <path
     class="cls-1"
     d="m 47.93,12.57 a 3.74,3.74 0 0 0 1.48,-2.48 2.37,2.37 0 0 0 -1.61,-2.5 4.26,4.26 0 0 0 -1.6,-0.43 13.8,13.8 0 0 0 -2,-0.12 h -2.52 l -2.12,6.32 c -2.75,0.3 -5.59,0.65 -8.47,1 L 35.64,1.45 h 11 a 16.87,16.87 0 0 1 4.86,0.49 c 5.58,1.46 5.58,5.17 5.5,6.14 a 7,7 0 0 1 -2.6,4.15 h -0.25 c -1.91,0 -4,0.17 -6.23,0.33 z m -11.23,8.58 -2,5.9 h 2.41 a 13.56,13.56 0 0 0 4.16,-0.45 5.08,5.08 0 0 0 3.94,-4.19 1.66,1.66 0 0 0 -0.75,-1.85 c 3.13,-0.23 5.81,-0.4 7.75,-0.49 a 3.77,3.77 0 0 1 1,3.09 10,10 0 0 1 -4.3,7.11 c -3.26,2.29 -6.57,2.33 -9.56,2.33 H 24.68 l 3.77,-10.77 c 2.8,-0.24 5.58,-0.47 8.25,-0.68 z"
     id="path1"
     style="fill:#00633a;fill-opacity:1" />
  <path
     class="cls-2"
     d="m 150.7,1.93 h 7.47 L 148,30.83 c -2.4,-0.67 -4.8,-1.42 -7,-2.17 l -8.82,-16.42 -4,11.74 c -2.39,-0.84 -4.68,-1.62 -6.89,-2.36 l 7,-19.69 h 6.76 l 9.43,17.79 z"
     id="path2"
     style="fill:#00633a;fill-opacity:1" />
  <polygon
     class="cls-2"
     points="183.64,7.79 192.51,7.79 183.96,32.12 191.96,32.12 200.51,7.79 208.64,7.79 210.71,1.94 185.7,1.94 "
     id="polygon2"
     style="fill:#00633a;fill-opacity:1" />
  <path
     class="cls-1"
     d="M 241.12,15 C 241.68,7.6 236.94,1.1 226.83,1.1 a 19.78,19.78 0 0 0 -20.07,18 c -0.6,8 4.58,13.82 14,13.82 13,0 19.77,-10 20.37,-18 z m -19.4,12 c -4.4,0 -7.34,-2.91 -7,-7.83 0.35,-4.7 4.15,-12.49 11.66,-12.49 4.48,0 7.24,3.08 6.88,7.79 C 232.9,19.18 229.49,27 221.72,27 Z"
     id="path3"
     style="fill:#00633a;fill-opacity:1" />
  <polygon
     class="cls-2"
     points="239.54,32.12 247.23,32.12 254,12.24 264.67,32.21 269.37,32.21 280,1.94 272.53,1.94 266.31,19.72 256.89,1.94 250.12,1.94 "
     id="polygon3"
     style="fill:#00633a;fill-opacity:1" />
  <path
     class="cls-1"
     d="m 114.5,29.34 0.15,2.78 H 107 v -5.44 c 2.45,0.77 5,1.67 7.53,2.66 z m -17.67,-5.26 -5.87,8 h -8.13 l 7,-9.35 c 2.35,0.39 4.69,0.83 7,1.31 z m 10,-13.8 -1.93,2.72 -2.39,3.22 Q 99.16,15.43 95.87,14.8 l 9.62,-12.83 h 8.57 l 0.26,17.48 c -2.42,-0.74 -4.76,-1.41 -7,-2 l 0.19,-7.95 -0.61,0.85 z"
     id="path4"
     style="fill:#00633a;fill-opacity:1" />
  <path
     class="cls-3"
     d="M 105.69,24.09 C 88.37,19.09 65.21,17.58 53.43,17.91 43.49,18.19 0,22.23 0,22.23 c 14.19,-3.54 39.8,-7.48 54.21,-7.88 11.85,-0.32 20.9,-0.94 41.63,2.41 20.73,3.35 47.26,16.73 62.94,18.39 8.28,0.88 10.21,-3 10.42,-5.73 0.19,-2.5 -1.46,-5 -3.35,-7.1 -2.45,-2.73 -6.1,-5.66 -6.14,-9.52 A 12.92,12.92 0 0 1 172.78,0 16.64,16.64 0 0 1 182,2.9 l -1.95,6.39 C 177.6,6 174.78,5.7 173.67,5.7 c -3.31,0 -6,1.17 -6.38,4.61 -0.23,2 1,3 2.79,5.4 l 3.27,3.63 c 0.88,1.38 4,4 3.58,9.13 -0.48,6.32 -4.8,15.38 -19.55,13.64 -14.09,-1.65 -34.46,-13.06 -51.69,-18 z"
     id="path5" />
  <path
     class="cls-1"
     d="m 78,12.52 a 3.85,3.85 0 0 0 0.62,-1.78 2.79,2.79 0 0 0 -1.89,-3 8.22,8.22 0 0 0 -2.61,-0.3 h -2.26 l -1.67,4.73 c -2.47,-0.07 -5,-0.09 -7.72,-0.08 L 66,1.93 h 10.45 a 15.82,15.82 0 0 1 5.26,0.77 6.78,6.78 0 0 1 4.55,7.19 8.63,8.63 0 0 1 -0.93,3.28 C 82.94,12.9 80.5,12.69 77.98,12.52 Z M 67.33,20.31 63.19,32.12 H 55.46 L 59.7,20 c 2.35,0 4.91,0.15 7.63,0.3 z m 11.92,1 3.27,10.8 H 74.44 L 71.62,20.6 c 2.47,0.2 5,0.43 7.63,0.72 z"
     id="path6"
     style="fill:#00633a;fill-opacity:1" />
</svg>
