<svg xmlns="http://www.w3.org/2000/svg" fill="none" viewBox="0 0 160 40" width="160px" height="40px"><path fill="#43270F" d="M58.043 25.481c-1.441.32-3.109.789-5.03 1.46-2.229.78-4.012 1.561-5.44 2.307-2.534 1.326-3.941 2.538-4.718 3.427q.25.282.518.554 3.48 3.49 8.53 3.49 5.047 0 8.55-3.49 3.414-3.404 3.498-8.303c-1.295-.113-3.202-.044-5.908.555M46.724 27.634a36 36 0 0 1 2.334-1.108 13.6 13.6 0 0 0-3.21-.632c-1.68-.129-4.194-.22-5.9.538a11.96 11.96 0 0 0 1.77 4.785c1.17-1.25 2.847-2.455 5.006-3.583M62.863 21.945c.281 0 .545.01.8.022q-.718-3.285-3.22-5.77-3.515-3.49-8.58-3.49-5.066 0-8.558 3.49-3.165 3.165-3.458 7.625a23.4 23.4 0 0 1 4.745-.464q.64 0 1.23.03a5.9 5.9 0 0 1 1.636-3.155q1.757-1.779 4.404-1.779t4.428 1.78a5.86 5.86 0 0 1 1.433 2.31c1.886-.397 3.606-.599 5.14-.599M22.26 10.17H9.446v7.572h12.45v6.021H9.445V36.08H3.128V4.148h19.133zM31.369 17.195q.824-2.19 2.723-3.285t4.234-1.095v6.57q-2.7-.32-4.829 1.094t-2.128 4.698V36.08h-5.905V13.272h5.905zM79.382 12.633q3.754 0 6.202 2.509t2.45 6.934V36.08h-5.906V22.806q0-2.281-1.235-3.49t-3.296-1.21q-2.289.001-3.661 1.415-1.374 1.415-1.374 4.242V36.08h-5.904V13.272h5.904v2.554q2.151-3.193 6.82-3.193M105.014 18.928h-5.172v9.488q0 1.186.595 1.734.594.547 1.739.615 1.143.07 2.838-.022v5.337q-6.089.683-8.582-1.14-2.496-1.824-2.495-6.524v-9.488h-3.982v-5.657h3.982V8.665l5.904-1.779v6.387h5.173zM111.33 10.535q-1.466 0-2.54-1.072-1.076-1.072-1.076-2.532t1.076-2.555q1.074-1.094 2.54-1.094 1.51 0 2.586 1.094t1.076 2.555-1.076 2.532q-1.075 1.072-2.586 1.072m-2.929 25.545V13.272h5.904V36.08zM123.551 27.093q1.19 4.289 6.453 4.288 3.387 0 5.127-2.28l4.76 2.737q-3.388 4.88-9.978 4.88-5.676 0-9.109-3.42-3.432-3.422-3.432-8.622 0-5.154 3.386-8.6 3.387-3.443 8.697-3.443 5.034 0 8.308 3.467 3.272 3.467 3.272 8.576 0 1.14-.228 2.417zm-.092-4.561h11.672q-.504-2.327-2.083-3.467t-3.593-1.14q-2.38 0-3.936 1.208-1.557 1.209-2.06 3.399M149.914 17.195q.824-2.19 2.724-3.285 1.898-1.095 4.234-1.095v6.57q-2.702-.32-4.829 1.094-2.129 1.415-2.129 4.698V36.08h-5.904V13.272h5.904z"></path></svg>