<svg xmlns="http://www.w3.org/2000/svg" viewBox="0 0 179.59 56.99"><defs><style>.cls-1,.cls-2{fill:#e9600e;}.cls-2{fill-rule:evenodd;}.cls-3{fill:#124395;}</style></defs><title>hutchinsons-logo</title><g id="Layer_2" data-name="Layer 2"><g id="Layer_1-2" data-name="Layer 1"><polygon class="cls-1" points="0 31.64 5.29 31.64 5.29 22.27 9.4 22.27 9.4 31.64 14.68 31.64 14.68 9.06 9.4 9.06 9.4 17.59 5.29 17.59 5.29 9.06 0 9.06 0 31.64 0 31.64"/><path class="cls-1" d="M18.5,9.06V21.22c0,3.72.06,6.36,1.08,8.17,1.14,2,3,2.79,6,2.79,3.18,0,5.19-.87,6.3-2.94.84-1.56.9-3.46.9-5.77V9.06H27.45V23.5c0,2.88,0,4.44-1.77,4.44s-1.9-1.62-1.9-4.74V9.06Z"/><polygon class="cls-1" points="39.31 31.64 44.6 31.64 44.6 13.44 49.04 13.44 49.04 9.06 35.08 9.06 35.08 13.44 39.31 13.44 39.31 31.64 39.31 31.64"/><path class="cls-1" d="M60.58,22.9v1c0,2.82-.39,4.05-2.13,4.05-2.22,0-2.22-2.31-2.22-7.59v-.42c0-5,0-7.15,2.22-7.15,1.65,0,2.16,1.26,2.19,4.17h5.14v-.2c0-5.47-2.46-8.23-7.42-8.23-2.88,0-5,1-6.21,2.94-1.12,1.71-1.27,4.62-1.27,8.89s.15,7.18,1.27,8.89c1.29,2,3.36,2.94,6.3,2.94,5,0,7.36-2.67,7.36-8.14,0-.39,0-.75,0-1.14Z"/><polygon class="cls-1" points="69.38 31.64 74.66 31.64 74.66 22.27 78.78 22.27 78.78 31.64 84.06 31.64 84.06 9.06 78.78 9.06 78.78 17.59 74.66 17.59 74.66 9.06 69.38 9.06 69.38 31.64 69.38 31.64"/><polygon class="cls-1" points="87.88 31.64 93.16 31.64 93.16 9.06 87.88 9.06 87.88 31.64 87.88 31.64"/><path class="cls-1" d="M96.89,31.64h4.75V27.83a98.77,98.77,0,0,0-.6-10.54l4.41,14.35H111V9.06h-4.72V12.6c0,2.46.18,5.92.51,10.39L102.39,9.06h-5.5V31.64Z"/><path class="cls-1" d="M114.13,24c0,.42-.06.84-.06,1.23,0,4.63,2.31,7,6.87,7,4.36,0,6.79-2.52,6.79-7.06a7.22,7.22,0,0,0-1-3.9c-.87-1.35-2.34-2.19-4.11-3.33-2-1.27-3.31-1.87-3.31-3.52,0-1.23.69-1.95,1.65-1.95,1.17,0,1.81,1,1.81,3v.27h4.74c0-.24,0-.48,0-.72,0-4.17-2.34-6.45-6.73-6.45-4,0-6.42,2.37-6.42,6.33a7.07,7.07,0,0,0,1.14,4.09,16.55,16.55,0,0,0,4.2,3.39c1.71,1.14,2.94,1.68,2.94,3.54,0,1.35-.69,2.16-1.8,2.16C119.41,28,119,27,119,24.64V24Z"/><path class="cls-2" d="M130.27,20.35c0,4.26.15,7.18,1.26,8.89,1.29,2,3.36,2.94,6.3,2.94s5-1,6.28-2.94c1.14-1.75,1.29-4.66,1.29-8.89s-.15-7.15-1.29-8.89c-1.29-2-3.34-2.94-6.28-2.94s-5,1-6.3,2.94c-1.11,1.71-1.26,4.62-1.26,8.89Zm9.72,2c0,3.69,0,5.52-2.16,5.52s-2.19-1.83-2.19-5.52V18.31c0-3.67,0-5.53,2.16-5.53S140,14.64,140,18.31v4.08Z"/><path class="cls-1" d="M148.76,31.64h4.74V27.83a98.77,98.77,0,0,0-.6-10.54l4.42,14.35h5.52V9.06h-4.71V12.6q0,3.69.51,10.39L154.25,9.06h-5.49V31.64Z"/><path class="cls-1" d="M166,24c0,.42-.06.84-.06,1.23,0,4.63,2.31,7,6.88,7,4.35,0,6.78-2.52,6.78-7.06a7.22,7.22,0,0,0-1-3.9c-.87-1.35-2.34-2.19-4.11-3.33-2-1.27-3.31-1.87-3.31-3.52,0-1.23.7-1.95,1.66-1.95,1.17,0,1.8,1,1.8,3v.27h4.74c0-.24,0-.48,0-.72,0-4.17-2.34-6.45-6.72-6.45-4,0-6.43,2.37-6.43,6.33a7.07,7.07,0,0,0,1.14,4.09,16.55,16.55,0,0,0,4.2,3.39c1.72,1.14,3,1.68,3,3.54,0,1.35-.69,2.16-1.8,2.16-1.48,0-1.93-1.05-1.93-3.39V24Z"/><polygon class="cls-3" points="0 0 179.27 0 179.27 5.61 0 5.61 0 0 0 0"/><polygon class="cls-3" points="0 34.94 179.27 34.94 179.27 40.54 0 40.54 0 34.94 0 34.94"/><path class="cls-3" d="M7.17,47.74A2.17,2.17,0,0,0,5,46c-2,0-2.73,1.69-2.73,3.45S3,52.8,5,52.8a2.27,2.27,0,0,0,2.29-2.25H9.4A4.25,4.25,0,0,1,5,54.67C1.86,54.67,0,52.34,0,49.43s1.84-5.31,5-5.31a4.08,4.08,0,0,1,4.35,3.62Z"/><path class="cls-3" d="M10.41,47.13h1.91v1.36h0a2.56,2.56,0,0,1,2.32-1.55,1.56,1.56,0,0,1,.44.07v1.86a3.82,3.82,0,0,0-.72-.07c-1.46,0-2,1.06-2,2.34v3.29h-2Z"/><path class="cls-3" d="M18.91,46.94a3.58,3.58,0,0,1,3.78,3.85,3.57,3.57,0,0,1-3.78,3.83,3.57,3.57,0,0,1-3.77-3.83A3.58,3.58,0,0,1,18.91,46.94Zm0,6.17c1.36,0,1.77-1.17,1.77-2.32s-.41-2.34-1.77-2.34-1.77,1.17-1.77,2.34S17.55,53.11,18.91,53.11Z"/><path class="cls-3" d="M23.7,47.13h1.9v.94h0a2.42,2.42,0,0,1,2.18-1.13c2.28,0,3.31,1.84,3.31,3.92s-1.07,3.76-3.2,3.76a2.59,2.59,0,0,1-2.19-1.1h0V57h-2Zm5.42,3.67c0-1.16-.47-2.35-1.75-2.35s-1.74,1.17-1.74,2.35.45,2.31,1.75,2.31S29.12,52,29.12,50.8Z"/><path class="cls-3" d="M35.89,44.36h4.54c2.51,0,3.48,1.59,3.48,3.23s-1,3.23-3.48,3.23H38.1v3.61H35.89ZM38.1,49.1h1.72c1,0,2-.23,2-1.51s-.92-1.51-2-1.51H38.1Z"/><path class="cls-3" d="M44.8,47.13h1.9v1.36h0a2.57,2.57,0,0,1,2.33-1.55,1.49,1.49,0,0,1,.43.07v1.86a3.82,3.82,0,0,0-.72-.07c-1.46,0-2,1.06-2,2.34v3.29h-2Z"/><path class="cls-3" d="M53.29,46.94a3.58,3.58,0,0,1,3.78,3.85,3.78,3.78,0,1,1-7.55,0A3.58,3.58,0,0,1,53.29,46.94Zm0,6.17c1.37,0,1.78-1.17,1.78-2.32s-.41-2.34-1.78-2.34-1.76,1.17-1.76,2.34S51.94,53.11,53.29,53.11Z"/><path class="cls-3" d="M63.29,53.5h0a2.41,2.41,0,0,1-2.21,1.12c-2.2,0-3.28-1.89-3.28-3.9s1.09-3.78,3.23-3.78A2.56,2.56,0,0,1,63.18,48h0V44.36h2V54.43h-1.9Zm-1.75-5c-1.31,0-1.76,1.12-1.76,2.32s.52,2.34,1.76,2.34,1.72-1.15,1.72-2.35S62.84,48.45,61.54,48.45Z"/><path class="cls-3" d="M73.26,54.43H71.35v-1h0a2.59,2.59,0,0,1-2.23,1.21c-2.13,0-2.66-1.19-2.66-3V47.13h2v4.12c0,1.2.35,1.79,1.28,1.79,1.09,0,1.56-.6,1.56-2.08V47.13h2Z"/><path class="cls-3" d="M79.46,49.7A1.36,1.36,0,0,0,78,48.45c-1.28,0-1.7,1.29-1.7,2.37s.41,2.29,1.66,2.29a1.53,1.53,0,0,0,1.59-1.48h1.94a3.26,3.26,0,0,1-3.52,3,3.54,3.54,0,0,1-3.68-3.73,3.61,3.61,0,0,1,3.73-4c1.72,0,3.3.9,3.42,2.76Z"/><path class="cls-3" d="M84.85,47.13h1.47v1.34H84.85v3.62c0,.67.17.84.85.84a3.24,3.24,0,0,0,.62,0v1.56a7.29,7.29,0,0,1-1.17.07c-1.23,0-2.3-.28-2.3-1.73V48.47H81.63V47.13h1.22V45h2Z"/><path class="cls-3" d="M89.05,46h-2V44.36h2Zm-2,1.12h2v7.3h-2Z"/><path class="cls-3" d="M93.89,46.94a3.58,3.58,0,0,1,3.78,3.85,3.78,3.78,0,1,1-7.55,0A3.58,3.58,0,0,1,93.89,46.94Zm0,6.17c1.37,0,1.78-1.17,1.78-2.32s-.41-2.34-1.78-2.34-1.76,1.17-1.76,2.34S92.54,53.11,93.89,53.11Z"/><path class="cls-3" d="M98.68,47.13h1.91v1h0a2.59,2.59,0,0,1,2.23-1.21c2.13,0,2.66,1.2,2.66,3v4.49h-2V50.31c0-1.2-.35-1.79-1.28-1.79-1.09,0-1.55.6-1.55,2.08v3.83h-2Z"/><path class="cls-3" d="M112.12,51.08c0,1.34,1,1.87,2.23,1.87.78,0,2-.23,2-1.26s-1.51-1.27-3-1.66-3-1-3-2.87c0-2.06,1.94-3,3.76-3,2.1,0,4,.91,4,3.24H116c-.07-1.21-.93-1.52-2-1.52-.7,0-1.52.29-1.52,1.14s.48.87,3,1.52c.73.19,3,.65,3,2.94,0,1.84-1.46,3.23-4.19,3.23-2.23,0-4.32-1.1-4.29-3.59Z"/><path class="cls-3" d="M119.27,47.13h1.91v.94h0a2.42,2.42,0,0,1,2.18-1.13c2.28,0,3.31,1.84,3.31,3.92s-1.07,3.76-3.2,3.76a2.59,2.59,0,0,1-2.19-1.1h0V57h-2Zm5.42,3.67c0-1.16-.47-2.35-1.75-2.35s-1.74,1.17-1.74,2.35.46,2.31,1.75,2.31S124.69,52,124.69,50.8Z"/><path class="cls-3" d="M129.26,51.27c.05,1.27.67,1.84,1.79,1.84a1.66,1.66,0,0,0,1.58-.94h1.76A3.27,3.27,0,0,1,131,54.62a3.56,3.56,0,0,1-3.73-3.83A3.66,3.66,0,0,1,131,46.94c2.48,0,3.68,2.08,3.54,4.33ZM132.51,50c-.18-1-.62-1.55-1.59-1.55A1.56,1.56,0,0,0,129.26,50Z"/><path class="cls-3" d="M140.38,49.7a1.36,1.36,0,0,0-1.48-1.25c-1.28,0-1.7,1.29-1.7,2.37s.4,2.29,1.66,2.29a1.53,1.53,0,0,0,1.59-1.48h1.94a3.26,3.26,0,0,1-3.52,3,3.54,3.54,0,0,1-3.68-3.73,3.61,3.61,0,0,1,3.73-4c1.72,0,3.3.9,3.42,2.76Z"/><path class="cls-3" d="M145.29,46h-2V44.36h2Zm-2,1.12h2v7.3h-2Z"/><path class="cls-3" d="M146.5,49.38c.12-1.88,1.79-2.44,3.43-2.44,1.45,0,3.2.32,3.2,2.07V52.8a3.66,3.66,0,0,0,.26,1.63h-2a3.43,3.43,0,0,1-.14-.71,3.33,3.33,0,0,1-2.45.9c-1.38,0-2.48-.69-2.48-2.18,0-1.65,1.24-2,2.48-2.22s2.37-.14,2.37-1-.59-1-1.3-1-1.25.31-1.32,1.1Zm4.63,1.48a4.08,4.08,0,0,1-1.67.42c-.62.13-1.18.34-1.18,1.07s.58.93,1.23.93a1.49,1.49,0,0,0,1.62-1.67Z"/><path class="cls-3" d="M154.46,44.36h2V54.43h-2Z"/><path class="cls-3" d="M159.81,46h-2V44.36h2Zm-2,1.12h2v7.3h-2Z"/><path class="cls-3" d="M162.66,52.06c0,.87.75,1.22,1.54,1.22.58,0,1.31-.22,1.31-.93s-.83-.81-2.27-1.12c-1.16-.26-2.31-.67-2.31-1.95,0-1.86,1.61-2.34,3.17-2.34s3.06.53,3.22,2.32h-1.91c0-.77-.65-1-1.36-1-.46,0-1.12.08-1.12.67s1.13.82,2.27,1.09,2.31.69,2.31,2.05c0,1.91-1.66,2.53-3.32,2.53s-3.35-.63-3.43-2.56Z"/><path class="cls-3" d="M170.94,47.13h1.47v1.34h-1.47v3.62c0,.67.17.84.85.84a3.24,3.24,0,0,0,.62,0v1.56a7.29,7.29,0,0,1-1.17.07c-1.23,0-2.3-.28-2.3-1.73V48.47h-1.21V47.13h1.21V45h2Z"/><path class="cls-3" d="M174.64,52.06c0,.87.74,1.22,1.53,1.22.58,0,1.31-.22,1.31-.93s-.83-.81-2.27-1.12c-1.15-.26-2.31-.67-2.31-1.95,0-1.86,1.61-2.34,3.17-2.34s3.07.53,3.22,2.32h-1.9c-.06-.77-.65-1-1.37-1-.45,0-1.12.08-1.12.67s1.13.82,2.27,1.09,2.32.69,2.32,2.05c0,1.91-1.67,2.53-3.33,2.53s-3.34-.63-3.43-2.56Z"/></g></g></svg>