<?xml version="1.0" encoding="UTF-8" standalone="no"?>
<svg
   xmlns:dc="http://purl.org/dc/elements/1.1/"
   xmlns:cc="http://creativecommons.org/ns#"
   xmlns:rdf="http://www.w3.org/1999/02/22-rdf-syntax-ns#"
   xmlns:svg="http://www.w3.org/2000/svg"
   xmlns="http://www.w3.org/2000/svg"
   xmlns:xlink="http://www.w3.org/1999/xlink"
   xmlns:sodipodi="http://sodipodi.sourceforge.net/DTD/sodipodi-0.dtd"
   xmlns:inkscape="http://www.inkscape.org/namespaces/inkscape"
   width="640"
   height="380"
   id="svg2"
   version="1.1">
  <g
     inkscape:label="Layer 1"
     inkscape:groupmode="layer"
     id="layer1"
     transform="translate(469.32459,-262.559)">
    <path
       id="path5813"
       d="m 170.67542,563.5145 -600.38197,79.04451 -39.61804,-300.96687 600.38196,-79.02536 39.61805,300.94772"
       style="fill:#fff100;fill-rule:nonzero;stroke:none" />
    <path
       id="path5815"
       d="m -446.41203,359.17887 559.88267,-73.71868 34.29222,260.48673 -559.88268,73.71868 -34.29221,-260.48673"
       style="fill:#0e0e21;fill-rule:nonzero;stroke:none" />
    <path
       id="path5817"
       stroke-miterlimit="3.864"
       d="m -446.41203,359.17887 559.88267,-73.71868 34.29222,260.48673 -559.88268,73.71868 -34.29221,-260.48673 z"
       style="fill:none;stroke:#221e1f;stroke-width:0.76630646;stroke-linecap:butt;stroke-linejoin:miter;stroke-miterlimit:3.86400008" />
    <path
       id="path5819"
       d="m -13.142347,408.66311 10.0577725,-10.93902 -70.8258765,9.32978 0.708834,-6.68602 67.7798077,-8.92747 -34.2155847,-12.75901 1.609244,-4.34879 39.6946757,14.78972 11.0922863,-90.86479 5.632353,-0.72799 -10.6516605,88.43177 20.0389145,-21.78227 2.854492,2.6246 -20.8052213,22.6252 48.7562493,-6.41781 -0.708833,6.68602 -40.403509,5.32583 21.820577,8.12285 -1.628401,4.36795 -30.0200568,-11.20724 -1.1686174,0.15326 -2.3947077,19.8665 -5.8239293,0.76631 2.12650052,-17.39516 -10.65166032,11.59038 -2.873649,-2.6246"
       style="fill:#fff100;fill-rule:nonzero;stroke:none" />
    <path
       id="path5821"
       d="m -70.251337,442.49555 c -3.007753,0.38315 -6.264556,3.12269 -7.778011,6.68602 -2.931123,6.93507 -6.47529,28.42997 -4.291317,44.90556 0.862095,6.57108 3.582483,11.24555 7.720538,10.70913 12.739845,-1.68587 17.222738,-28.10429 14.119197,-51.72568 -0.65136,-4.94268 -4.272158,-11.30303 -9.770407,-10.57503 z M 69.657068,435.503 c 1.091987,-2.06903 7.490646,-6.55192 14.617296,-7.49065 7.164966,-0.93872 12.567426,4.46374 11.686174,10.19188 -1.992397,12.60574 -4.291316,33.20023 -2.337235,48.06657 2.011555,15.34529 10.575027,22.14626 21.590687,20.70944 5.01931,-0.67052 9.21483,-2.47134 12.33753,-4.86605 6.6094,-5.05762 9.21484,-1.59009 3.85069,3.85069 -5.19172,5.26836 -11.53291,8.77421 -19.19597,9.78957 -20.76691,2.73954 -35.805675,-8.87 -38.870901,-32.05077 -0.747149,-5.59404 -1.628401,-11.16892 -2.030712,-14.19583 -0.24905,-1.95408 -0.727991,-2.06903 -1.705032,-0.34484 -2.739546,4.84689 -6.130452,12.16512 -7.184123,17.58674 -1.360194,6.95423 -5.440776,13.27626 -9.387255,13.79351 -2.222288,0.30652 -5.421618,-1.45598 -7.854641,-3.10354 -2.394708,-1.6284 -5.459934,-3.60164 -5.881402,-6.82013 -0.229892,-1.81997 -0.593888,-3.98479 -0.708834,-5.90056 -0.114946,-1.68587 -0.689675,-2.29892 -1.743347,-0.42147 -3.410064,6.03467 -10.096088,18.16147 -22.165415,19.75155 -10.364295,1.3602 -21.7439462,-2.47133 -24.3493882,-12.22258 -0.4980988,-1.91577 -1.0919868,-1.70504 -1.8199778,-0.32568 -4.195528,8.06537 -14.195828,19.96228 -23.812974,21.22668 -8.007903,1.07283 -13.985093,-2.64375 -18.812824,-6.13045 -0.689676,-0.4981 -1.22609,-0.51725 -1.839136,0.15326 -3.946478,4.36795 -10.517556,10.95819 -18.487143,11.9927 -15.230342,2.01156 -21.897208,-9.09989 -23.35319,-11.87775 -0.363996,-0.70883 -1.053672,-0.55557 -1.609244,0 -3.429221,3.48669 -21.514051,21.07343 -46.016701,24.29192 -27.72114,3.65911 -50.51876,-12.05017 -54.6185,-43.10474 -1.87745,-14.27246 0.84294,-29.98174 0.84294,-29.98174 0,0 -13.48699,10.01945 -29.11965,12.06932 -13.60194,1.80082 -24.73254,-8.60179 -26.68662,-23.42982 -1.89661,-14.42572 8.02706,-36.32293 12.79732,-41.6296 3.41006,-3.81237 11.93522,-7.03086 18.79366,-7.93127 4.94268,-0.65136 8.00791,-0.21073 10.68998,2.64376 2.43302,2.6246 4.48289,6.39866 5.19173,11.74364 1.41766,10.70914 -2.73955,18.65957 -8.08454,19.3684 -3.85069,0.4981 -6.57107,-2.35639 -7.26075,-7.56728 -0.34484,-2.60544 0.17242,-5.40246 0.53641,-6.82012 0.13411,-0.59389 0.53642,-1.26441 1.37936,-1.37936 1.16861,-0.15326 2.98859,-1.01535 2.66291,-3.58248 -0.34484,-2.60544 -1.66672,-5.21088 -5.78561,-4.67447 -9.48305,1.24525 -15.57518,21.85889 -13.41037,38.3728 1.39851,10.65166 9.40642,14.92382 19.82818,13.54447 9.75125,-1.26441 11.41797,-6.64771 11.70533,-8.64011 0.30653,-1.9924 1.45599,-2.70123 3.25681,-2.93112 1.78166,-0.24905 5.15341,0.0192 5.15341,0.0192 5.30667,-29.7327 22.74014,-58.58413 26.93567,-62.4923 3.14186,-2.93112 16.3798,-9.61714 30.65226,-11.49459 16.72464,-2.20314 34.56042,6.24539 37.64481,29.59858 3.065222,23.33404 -6.22624,45.78682 -21.32248,47.77921 -11.53291,1.51346 -17.95073,-2.66291 -18.96609,-10.34514 -1.2644,-9.65546 2.68208,-24.73254 4.08059,-29.59858 0.2682,-0.93873 1.1303,-1.95408 2.64375,-2.14566 2.95028,-0.38315 8.16117,-1.57093 7.49065,-6.72434 -0.76631,-5.76646 -4.57868,-11.41797 -9.77041,-10.72829 -4.40626,0.57473 -7.66306,2.52881 -10.53671,6.26455 -12.39501,16.16907 -26.61,55.15491 -22.31868,87.89536 2.04987,15.44107 14.15751,26.85904 32.54887,24.44517 13.98509,-1.83913 30.0009,-10.67081 34.44547,-18.35304 2.26061,-3.92732 3.50586,-9.67462 4.157217,-17.29936 0.977041,-11.59039 4.214686,-30.13501 7.835484,-33.69833 3.946478,-3.88901 18.429671,-12.06933 26.150208,-15.59434 5.517407,-2.50965 11.207233,-3.02691 15.306972,-0.78546 5.862245,3.19933 6.781813,10.05777 7.509804,17.89325 0.670518,7.22244 0.498099,15.97749 0.498099,15.97749 0,0 4.367947,-1.55177 3.410064,3.75491 -0.766307,4.21468 -2.452181,20.1347 -1.398509,28.10429 1.053671,7.96958 2.911964,11.6287 6.781812,11.11144 9.866196,-1.30272 18.180621,-24.04287 21.437424,-52.24295 0.153261,-1.28356 -2.030712,-3.92732 1.628401,-5.82392 3.3717485,-1.72419 8.8508399,-3.29512 13.3912058,-3.90817 3.7165864,-0.47894 6.9350736,-0.30652 7.2224385,1.89661 0.3256807,2.47134 -1.360194,3.67827 -1.8774508,6.05382 -1.3985094,6.36035 -3.1418566,23.23825 -1.7816626,33.66001 1.130302,8.52516 3.5824828,12.39501 8.5443171,11.74365 12.912264,-1.70503 19.521658,-32.16571 22.414465,-44.02431 0.555572,-2.29892 1.570928,-3.41006 3.869847,-4.67447 3.065226,-1.72419 12.299219,-5.65151 15.383603,-2.03071 1.436825,1.68588 1.685874,3.67827 0.977041,7.68222 -0.919568,5.07679 -0.383153,11.89691 0.153261,15.00045 0.517257,3.02691 0.996198,3.25681 2.356392,0.84294 1.360194,-2.41386 4.693628,-11.66701 6.915916,-18.73619 1.360194,-4.38711 1.705032,-8.64011 2.797019,-10.74745"
       style="fill:#ffffff;fill-rule:nonzero;stroke:none" />
    <path
       id="path5823"
       d="m -405.5679,558.15035 c 0.65137,0.95788 1.8583,1.41767 3.10355,1.26441 4.253,-0.55557 13.31457,-21.93553 23.02751,-67.33918 7.41401,-34.57958 9.73209,-62.26241 9.73209,-62.26241 0,0 -0.76631,-0.99619 -0.9962,-2.81617 -0.45978,-3.41007 0.80462,-8.56348 4.59784,-11.05397 4.23384,-2.79702 15.47939,-7.95043 19.38755,-8.44853 5.84309,-0.78547 9.38726,2.70123 10.6325,9.73209 2.08819,11.68617 4.40627,37.33828 5.1151,51.91726 0.8621,18.31473 2.31808,29.15797 3.37175,35.57578 0.24905,1.51346 1.09199,2.37555 2.50965,0.44063 5.07678,-6.8776 10.21104,-19.77071 14.57898,-35.49915 8.50601,-30.74805 10.74745,-51.68737 10.74745,-51.68737 0,0 -2.08818,-9.55967 3.08439,-15.07708 3.41006,-3.65911 13.67857,-9.96199 20.44122,-10.84324 5.07678,-0.67052 8.18032,3.31428 9.06157,8.62095 1.91577,11.66702 2.50966,32.49139 3.1227,66.49624 0.59389,34.42632 0.30653,49.25435 3.67827,57.60709 1.4943,3.73575 6.09214,3.94648 4.981,7.16497 -1.4943,4.34879 -1.60925,7.8738 -7.1075,8.60179 -8.6401,1.14946 -21.74394,-2.72039 -24.57928,-20.21133 -3.35259,-20.4987 -3.7549,-41.1315 -4.08058,-56.95573 -0.0575,-2.41387 -1.09198,-3.19933 -2.01155,0.24905 -2.79702,10.53671 -8.29527,31.36109 -16.09244,49.44592 -6.22624,14.34909 -16.8779,24.57928 -21.97384,25.2498 -2.18397,0.28737 -5.13425,-1.68587 -8.77421,-4.15721 -4.31047,-2.93112 -7.22243,-4.92352 -7.47148,-8.25695 -1.09199,-13.81268 -3.42923,-35.28842 -5.68983,-53.58398 -0.44063,-3.42923 -1.57093,-3.41007 -2.58628,0.34483 -3.25681,12.14596 -8.27611,31.3611 -14.10004,48.92867 -5.84309,17.56758 -16.83959,45.21208 -27.31883,46.57228 -7.47149,0.9962 -10.0003,-4.08058 -10.51756,-7.96959 -0.36399,-2.83533 1.47514,-3.00775 2.1265,-2.04987"
       style="fill:#ffffff;fill-rule:nonzero;stroke:none" />
  </g>
</svg>
