<?xml version="1.0" encoding="UTF-8"?>
<!DOCTYPE svg PUBLIC "-//W3C//DTD SVG 1.1//EN" "http://www.w3.org/Graphics/SVG/1.1/DTD/svg11.dtd">
<!-- Creator: CorelDRAW -->
<svg xmlns="http://www.w3.org/2000/svg" xml:space="preserve" width="527.702mm" height="160.832mm" version="1.1" style="shape-rendering:geometricPrecision; text-rendering:geometricPrecision; image-rendering:optimizeQuality; fill-rule:evenodd; clip-rule:evenodd"
viewBox="0 0 15278.43 4656.52"
 xmlns:xlink="http://www.w3.org/1999/xlink"
 xmlns:xodm="http://www.corel.com/coreldraw/odm/2003">
 <defs>
  <style type="text/css">
   <![CDATA[
    .fil0 {fill:#01355A}
    .fil3 {fill:#5E910E}
    .fil4 {fill:#71A7E3}
    .fil2 {fill:#8EBC28}
    .fil1 {fill:#EB9F0B}
   ]]>
  </style>
 </defs>
 <g id="Camada_x0020_1">
  <metadata id="CorelCorpID_0Corel-Layer"/>
  <g id="_1927859451104">
   <g>
    <path class="fil0" d="M8938.68 2008.42c287.2,-67.78 320.89,643.1 72.68,710.95 -171.69,46.93 -242.75,-160.87 -250.82,-310.32 -9.66,-178.79 30.82,-365.86 178.14,-400.63zm-1889.09 263.69c-10.59,-117.86 56.49,-201.48 138.96,-241.39 81.8,-39.59 236.07,-49.74 310.02,6.69 66.13,50.46 56.79,165.86 -98.92,214.87 -107.34,33.79 -233.39,33.25 -350.06,19.84zm1133.7 467.74c-0.18,115.49 -12.15,614.41 13.15,683.41 30.98,84.49 104.95,129.26 217.59,129.71 110.7,0.44 248.65,6.49 356.32,-2.37l1.31 -637.88c68.96,53.73 102,142.42 283.85,182.72 143.94,31.9 296.39,-0.52 399.37,-65.22 186.38,-117.09 295.21,-341.54 307.66,-652.11 27.86,-694.71 -636.15,-943.17 -959.12,-571.67l-35.19 35.29c-17,-104 -91.55,-167.36 -210.4,-170.31 -78.01,-1.94 -310.85,-8.57 -374.24,5.14 -0.95,147.46 16.5,436.23 -20.43,562.42 -133.91,457.52 -974.6,648.7 -1085.6,313.73 831.16,102.91 1040.21,-392.89 816.71,-686.32 -118.95,-156.17 -357.9,-231.38 -634.07,-228.89 -921.26,8.31 -1014.11,1105.03 -357.31,1383.76 224.64,95.33 487.27,113.44 739.77,45.72 354.77,-95.14 462.29,-280.05 540.63,-327.17z"/>
    <path class="fil0" d="M14671.35 2449.44c-16.95,149.56 -99.23,356.8 -275.03,269.48 -115.8,-57.52 -152.46,-257.09 -133.78,-428.39 47.82,-438.62 465.26,-339.21 408.81,158.92zm-945.76 235.25c94.93,133.44 90.88,175.04 250.05,280.75 376.02,249.72 924.83,156.45 1160.16,-167.88 361.81,-498.64 0.84,-1180.39 -695.32,-1158.77 -346.03,10.75 -565.54,178.66 -687.68,378.23 -89.07,145.53 -123.81,429.04 -455.39,617.15 -276.44,156.83 -629.9,102.88 -655.45,-245.62 -28.37,-387.01 244.19,-454.3 365.81,-344.72 84.18,75.84 38.14,119.97 72.49,204.49 468.22,156.23 618.13,-485.03 -67.98,-596.94 -472.84,-77.13 -854.86,154.93 -940.26,543.98 -164.13,747.78 656.16,1088.4 1231.99,823.77 142.59,-65.53 279.64,-165.33 371.44,-282.82l50.13 -51.62z"/>
    <path class="fil0" d="M5376.63 2429.01c-42.44,-509.02 378.26,-583.05 413.33,-122.93 38.53,505.68 -376.34,566.61 -413.33,122.93zm14.43 -590.49l-14.07 -28.28c-38.22,-86.63 -87.07,-135.11 -199.93,-138.72 -110.18,-3.53 -269.66,-6.47 -377.44,2.06 -11.45,498.16 -0.45,1035.44 -0.63,1541.91 -0.08,213.12 -6.56,338.72 275.43,337.88 83.68,-0.25 233.35,4.18 312,-4.31l13.93 -620.9 47.25 47.05c63.57,64.16 134.55,104.64 233.05,123.89 420.17,82.16 688.14,-273.47 697.81,-731.22 10.56,-499.88 -322.74,-790.5 -698.07,-720.71 -151.88,28.24 -218.09,104.2 -289.32,191.36z"/>
    <path class="fil0" d="M9956.67 2599.02l-170.11 316.66c371.9,296.39 1456.67,286.15 1411.24,-313.47 -23.72,-312.99 -335.01,-360.37 -622.72,-434.77 -247.96,-64.12 -131.7,-184.32 85.87,-156.6 212.28,27.05 309.16,132.79 382.03,152.88 32.09,-46.45 211.78,-203.6 33.54,-384.71 -173,-175.78 -691.53,-176.43 -942.62,-61.71 -342.73,156.59 -361.75,524.59 -100.5,696.35 123.8,81.4 268.7,109 426.86,156.38 272.82,81.73 159.07,208.38 -84.52,191.24 -231.52,-16.29 -326.82,-120.88 -419.07,-162.26z"/>
    <path class="fil0" d="M11931.39 3065.86c10.53,-103.91 2.35,-818.99 2.13,-984.12 -0.58,-427.05 -10.65,-425.3 -587.36,-408.72 -10.27,324.57 -0.97,664.63 -0.97,990.91 0,174 -21.21,321.77 114.78,386.22 61.39,29.09 390.39,29.82 471.41,15.71z"/>
   </g>
   <g>
    <path class="fil1" d="M2603.72 1162.53c-5.71,-423.98 -89.04,-860.92 -270.23,-1145.43 -9.16,-14.38 -26.34,-20.52 -42.53,-15.21 -808.67,265.24 -1361.55,866.4 -1490.38,1785.32 -309.19,-200.27 -559.01,-286.76 -760.31,-280.28 -18.66,0.6 -33.76,14.81 -35.48,33.39 -49.34,534.81 281.67,1499.36 1120.15,1943.95l0 -2287.85 571.1 0c134.61,0 271.11,108.2 279.45,218.79l0.15 2.04c146.8,-201.36 355.76,-287.03 628.09,-254.72z"/>
    <path class="fil1" d="M233.83 431.49c-92.12,181.9 -105.94,394.14 -37.27,587.1 68.35,192.05 212.1,347.27 397.15,430.37 18.01,8.09 39.19,0.54 48.01,-17.13 90.61,-181.37 103.81,-392.37 35.5,-584.31 -68.63,-192.86 -213.21,-348.64 -399.31,-431.69 -16.53,-7.37 -35.9,-0.5 -44.08,15.65z"/>
    <path class="fil2" d="M1991.18 3031.78c-4.61,398.36 -7.27,628.14 -7.98,689.3 -0.05,4.58 1.55,8.54 4.77,11.8 3.22,3.26 7.15,4.92 11.73,4.93 879.38,2.44 1514.49,-344.66 1905.33,-1041.28 6.16,-10.97 7.52,-22.61 4.07,-34.72 -3.44,-12.1 -10.74,-21.29 -21.75,-27.37 -221.78,-122.57 -420.89,-167.21 -597.32,-133.92 -122.51,729.65 -836.09,923.67 -1285.8,525.48 -2.36,-2.09 -5.53,-2.59 -8.4,-1.31 -2.87,1.28 -4.62,3.95 -4.65,7.09z"/>
    <path class="fil3" d="M31.1 3042.43c125.61,794.62 718.66,1350.48 1408.22,1540.84 785.73,216.91 1697.98,-37.74 2208.3,-900.71 15.45,-26.11 11.44,-58.25 -9.92,-79.8 -21.42,-21.61 -53.65,-25.79 -79.91,-10.43 -1178.18,689.36 -2558.24,439.95 -3410.86,-601.81 -19.09,-23.32 -50.35,-30.71 -77.84,-18.35 -27.45,12.34 -42.7,40.53 -38,70.25z"/>
    <ellipse class="fil1" cx="2219.98" cy="2179.57" rx="291.94" ry="509.52"/>
    <path class="fil4" d="M3342.8 2310.16c445.1,-316.62 551.6,-821.54 481.4,-1213.64 -79.04,-441.52 -446.18,-742.61 -820.89,-528.65 -126.69,74.48 -221.74,240.1 -212.27,413.16 6.46,118.11 72.22,240.32 168.03,336.93 352.56,327.28 382.01,513.01 357.61,977.84 -0.34,6.5 2.86,12.25 8.57,15.38 5.7,3.12 12.26,2.75 17.55,-1.02z"/>
   </g>
  </g>
 </g>
</svg>
