<svg xmlns="http://www.w3.org/2000/svg" width="350" height="114" viewBox="0 0 350 114" fill="none"><path d="M40.943 60.2556C41.0756 60.123 41.7824 59.4604 43.0634 59.2395L43.6377 59.1512L44.0795 59.5488C47.9669 62.7735 52.7819 64.5406 57.6854 64.5406C66.6087 64.5406 74.5161 58.8861 77.4316 50.4045C77.9617 48.8584 78.3151 47.2239 78.4476 45.5453L78.536 44.8385L78.4476 43.8225C77.6525 31.8069 65.8136 22.3534 51.4125 22C32.6381 22.3534 17.5303 37.638 17.5303 56.5007C17.5303 75.4518 32.8148 90.8247 51.7659 91.0014C53.312 91.0014 54.814 90.8689 56.3601 90.648C49.1596 87.0698 40.1479 81.1945 37.9833 73.4197C36.7906 69.1348 37.7624 64.8056 40.8547 60.4764L40.943 60.2556Z" fill="#DFDC00"></path><path d="M81.0096 46.2078C80.8329 47.9307 80.4353 49.6535 79.9052 51.288C76.6363 60.7856 67.7129 67.1468 57.7294 67.1468C52.4725 67.1468 47.2599 65.3356 43.0191 62.0225C42.9749 62.0667 42.8866 62.0667 42.8866 62.1108C40.3686 65.7332 39.5734 69.2672 40.5011 72.7128C42.4006 79.56 50.8381 84.9935 57.5527 88.3508L60.7333 89.9411C75.6202 86.0979 86.5757 72.6245 86.5757 56.5448C86.5757 47.7981 83.3067 39.8025 77.9174 33.7063C79.5077 36.401 80.5679 39.4049 80.9654 42.5413" fill="#DFDC00"></path><path d="M19.209 66.7493C21.3294 73.9498 25.7027 80.1785 31.5338 84.596C36.0838 87.8208 41.3848 89.9412 46.9067 90.6921C49.999 91.0897 53.2238 91.0897 56.316 90.648C52.4286 88.7043 47.9669 86.0979 44.3887 82.8731C33.7867 81.5479 24.5983 75.4517 19.209 66.7493Z" fill="#CCD615"></path><path d="M81.6279 38.9192C82.5114 42.0114 82.9974 45.2362 82.9974 48.5935C82.9974 67.5446 67.7128 82.9617 48.7617 83.0942C51.5447 85.1704 54.637 86.9374 57.4642 88.3069L61.4841 90.2947C76.0619 86.2748 86.7522 72.934 86.7522 57.0751C86.7964 50.4047 84.8969 44.176 81.6279 38.9192Z" fill="#CCD615"></path><path d="M78.4477 45.5895L78.5361 44.8827L78.4477 43.8666C77.6084 31.6302 65.3719 22 50.6175 22C42.8426 22 35.6421 24.6063 30.3411 29.2889L30.2969 29.3331C29.2367 30.1724 28.1324 31.1442 27.1605 32.1161C24.51 34.7666 22.3454 37.7705 20.6668 41.0836C18.2372 45.8987 17.0444 51.0672 17.0444 56.5007C17.0444 65.6891 20.6226 74.3474 27.1605 80.8853C32.5057 86.2305 39.5295 89.7203 46.9509 90.6922C50.0432 91.0897 53.268 91.0897 56.3602 90.648C49.1597 87.0698 40.148 81.1945 37.9834 73.4197C36.7907 69.1348 37.7625 64.8056 40.8548 60.4764L40.9873 60.2998C41.1198 60.1672 41.8266 59.5046 43.1077 59.2837L43.682 59.1954L44.1237 59.5929C48.0111 62.8177 52.8262 64.5847 57.7296 64.5847C66.653 64.5847 74.5603 58.9303 77.4759 50.4487C77.9618 48.8584 78.3152 47.2239 78.4477 45.5895Z" fill="#B1CD46"></path><path d="M40.0152 23.7671C36.3487 25.0482 33.0355 26.9477 30.3409 29.289C29.1923 30.1725 28.1321 31.1001 27.1161 32.1162C24.5098 34.7667 22.301 37.7706 20.6224 41.1279C18.2811 45.7663 17 50.9789 17 56.545C17 66.0426 20.8874 74.7009 27.1161 80.9296C32.3287 86.1422 39.22 89.7204 46.9065 90.7364C48.4084 90.9131 49.9104 91.0456 51.4565 91.0456C53.091 91.0456 54.6813 90.9131 56.3158 90.6923C51.7216 88.3952 46.9507 85.4796 43.3725 81.9456C40.5895 80.3995 38.0273 78.4558 35.7744 76.247C29.5015 70.0183 25.6583 61.36 25.6583 51.8624C25.6583 46.3405 26.9836 41.0837 29.2807 36.4453C30.9593 33.1322 33.1681 30.0841 35.7744 27.4778C36.7904 26.4618 37.8506 25.5341 38.9992 24.6506C39.3084 24.3414 39.6618 24.0763 40.0152 23.7671Z" fill="#75B845"></path><path d="M288.676 65.424H296.319V42.4972L306.17 57.4725H306.39L316.33 42.3647V65.4682H324.06V30.0399H315.667L306.346 45.0152L297.025 30.0399H288.632V65.424H288.676ZM260.669 50.6254L265.352 39.1399L270.034 50.6254H260.669ZM246.71 65.424H254.661L257.886 57.4725H272.862L276.086 65.424H284.215L269.063 29.7748H261.906L246.71 65.424ZM230.012 66.0425C236.903 66.0425 240.879 63.6129 244.501 59.7255L239.598 54.7337C236.815 57.2958 234.341 58.8861 230.277 58.8861C224.225 58.8861 220.028 53.8502 220.028 47.754V47.6657C220.028 41.6137 224.313 36.6661 230.277 36.6661C233.855 36.6661 236.55 38.1681 239.333 40.6419L244.28 34.9433C241.056 31.6743 236.947 29.4656 230.321 29.4656C219.454 29.4656 211.856 37.6821 211.856 47.754V47.8424C211.9 58.0026 219.631 66.0425 230.012 66.0425ZM188.797 58.842C182.524 58.842 178.062 53.806 178.062 47.7099V47.6215C178.062 41.5695 182.391 36.6219 188.664 36.6219C194.937 36.6219 199.399 41.6579 199.399 47.754V47.8424C199.399 53.8944 195.069 58.842 188.797 58.842ZM188.708 66.0425C199.619 66.0425 207.571 57.8259 207.571 47.754V47.6657C207.571 37.5938 199.752 29.4656 188.841 29.4656C177.929 29.4656 169.978 37.6821 169.978 47.754V47.8424C169.934 57.9143 177.753 66.0425 188.708 66.0425ZM143.738 47.2239V37.0637H151.469C155.312 37.0637 157.565 38.7423 157.565 42.0996V42.188C157.565 45.2361 155.444 47.1798 151.601 47.1798H143.738V47.2239ZM135.963 65.424H143.738V54.1152H149.834L157.432 65.424H166.532L157.874 52.79C162.38 51.1113 165.472 47.5332 165.472 41.8346V41.7462C165.472 38.3448 164.456 35.6943 162.424 33.6622C160.039 31.2768 156.593 30.084 152.131 30.084H135.963V65.424ZM111.004 47.8866V37.0637H117.012C120.9 37.0637 123.329 38.919 123.329 42.4089V42.4972C123.329 45.5453 121.076 47.8424 117.145 47.8424H111.004V47.8866ZM103.229 65.424H111.004V54.822H116.924C124.875 54.822 131.236 50.6254 131.236 42.4089V42.2763C131.236 34.9875 126.112 30.0399 117.675 30.0399H103.229V65.424Z" fill="currentColor"></path><path d="M331.261 79.7367H330.775V83.0056H331.129V80.1784L332.321 83.0056H332.498L333.691 80.1784V83.0056H334V79.7367H333.514L332.41 82.3872L331.261 79.7367ZM328.964 80.0459H330.068V79.7367H327.506V80.0459H328.611V83.0056H328.964V80.0459ZM324.988 80.4876C324.591 80.0459 324.149 79.7367 323.707 79.5158C323.221 79.3391 322.735 79.2507 322.161 79.2507C321.764 79.2507 321.366 79.2949 320.968 79.4274C320.571 79.56 320.217 79.7367 319.908 79.9575C319.599 80.1784 319.334 80.4876 319.157 80.841C318.981 81.1944 318.892 81.6362 318.892 82.1221C318.892 82.608 318.981 82.9614 319.113 83.2707C319.246 83.5799 319.466 83.8449 319.687 84.0216C319.908 84.2425 320.217 84.375 320.527 84.5076C320.836 84.6401 321.145 84.7726 321.499 84.861C321.808 84.9493 322.161 85.0818 322.47 85.1702C322.78 85.2585 323.045 85.3911 323.31 85.5678C323.531 85.7445 323.751 85.9212 323.884 86.142C324.016 86.3629 324.105 86.6721 324.105 87.0255C324.105 87.3348 324.016 87.5998 323.884 87.8207C323.751 88.0416 323.575 88.2183 323.398 88.395C323.221 88.5717 322.956 88.66 322.691 88.7484C322.426 88.8367 322.161 88.8809 321.94 88.8809C321.41 88.8809 320.968 88.7484 320.571 88.5275C320.173 88.3066 319.864 87.9974 319.643 87.644L318.715 88.3066C319.113 88.8367 319.555 89.2343 320.129 89.4552C320.703 89.676 321.278 89.8086 321.896 89.8086C322.294 89.8086 322.691 89.7202 323.089 89.5877C323.486 89.4552 323.84 89.2785 324.149 89.0134C324.458 88.7484 324.723 88.4833 324.9 88.0857C325.077 87.7323 325.209 87.2906 325.209 86.8488C325.209 86.2304 325.077 85.7445 324.812 85.4352C324.547 85.126 324.237 84.8168 323.84 84.5959C323.442 84.375 323.045 84.1983 322.603 84.0658C322.161 83.9333 321.719 83.8008 321.366 83.6241C320.968 83.4474 320.659 83.2707 320.394 83.0056C320.129 82.7406 319.997 82.3872 319.997 81.9454C319.997 81.6362 320.041 81.3711 320.173 81.1061C320.306 80.8852 320.438 80.6643 320.659 80.5318C320.88 80.3993 321.101 80.2668 321.366 80.2226C321.631 80.1342 321.896 80.1342 322.161 80.1342C323 80.1342 323.663 80.4435 324.105 81.1061L324.988 80.4876ZM310.366 84.9051H312.089L314.828 89.5877H316.065L313.149 84.8168C313.989 84.7284 314.607 84.4634 315.049 83.9775C315.491 83.4915 315.712 82.9173 315.712 82.2105C315.712 81.327 315.402 80.6202 314.828 80.1784C314.254 79.7367 313.414 79.5158 312.398 79.5158H309.306V89.5877H310.322V84.9051H310.366ZM310.366 80.4435H312.178C312.619 80.4435 313.017 80.4876 313.326 80.576C313.635 80.6643 313.9 80.7969 314.077 80.9736C314.254 81.1503 314.386 81.327 314.475 81.5478C314.563 81.7687 314.607 81.9896 314.607 82.2105C314.607 82.4755 314.563 82.6964 314.475 82.9173C314.386 83.1381 314.254 83.3148 314.077 83.4915C313.9 83.6682 313.635 83.7566 313.326 83.8891C313.017 83.9775 312.619 84.0216 312.178 84.0216H310.366V80.4435ZM300.383 84.8168H305.242V83.8891H300.383V80.4435H305.596V79.5158H299.367V89.5877H305.772V88.66H300.383V84.8168ZM288.853 79.5158H287.705L291.548 89.5877H292.564L296.495 79.5158H295.391L292.078 88.0416H292.034L288.853 79.5158ZM284.833 79.5158H283.817V89.5877H284.833V79.5158ZM276.175 79.5158H275.159V89.5877H280.858V88.66H276.175V79.5158ZM266.147 84.8168H271.006V83.8891H266.147V80.4435H271.36V79.5158H265.131V89.5877H271.537V88.66H266.147V84.8168ZM252.895 89.5877H256.252C256.87 89.5877 257.489 89.4993 258.152 89.2785C258.77 89.0576 259.344 88.7484 259.874 88.3508C260.36 87.909 260.802 87.4231 261.111 86.7605C261.42 86.0979 261.597 85.3911 261.597 84.5517C261.597 83.7124 261.42 83.0056 261.111 82.343C260.802 81.6804 260.404 81.1944 259.874 80.7527C259.388 80.3109 258.814 80.0017 258.152 79.825C257.533 79.6041 256.915 79.5158 256.252 79.5158H252.895V89.5877ZM253.911 80.4435H255.899C256.65 80.4435 257.312 80.576 257.887 80.7969C258.461 81.0177 258.903 81.327 259.3 81.7245C259.653 82.1221 259.963 82.5639 260.139 83.0498C260.316 83.5357 260.404 84.0216 260.404 84.5517C260.404 85.0818 260.316 85.5678 260.139 86.0537C259.963 86.5396 259.698 86.9814 259.3 87.3789C258.947 87.7765 258.461 88.0857 257.887 88.3066C257.312 88.5275 256.65 88.66 255.899 88.66H253.911V80.4435ZM241.012 80.4435H244.369V79.5158H236.594V80.4435H239.951V89.5877H240.967V80.4435H241.012ZM228.378 86.9372H233.502L234.606 89.5877H235.799L231.426 79.5158H230.41L226.036 89.5877H227.229L228.378 86.9372ZM230.984 80.7085L233.148 86.0095H228.775L230.984 80.7085ZM215.611 89.5877H216.627V84.8168H222.105V89.5877H223.121V79.5158H222.105V83.8891H216.627V79.5158H215.611V89.5877ZM209.117 80.4435H212.475V79.5158H204.7V80.4435H208.057V89.5877H209.073V80.4435H209.117ZM193.921 85.2585L197.676 79.5158H196.395L193.391 84.2425L190.387 79.5158H189.106L192.861 85.2585V89.5877H193.877V85.2585H193.921ZM178.018 79.5158H176.472V89.5877H177.488V80.8852H177.532L181.154 89.5877H181.685L185.307 80.8852H185.351V89.5877H186.367V79.5158H184.821L181.42 87.6882L178.018 79.5158ZM172.452 82.4313C172.187 81.7687 171.834 81.2386 171.348 80.7527C170.862 80.2668 170.332 79.9134 169.669 79.6483C169.051 79.3833 168.344 79.2507 167.593 79.2507C166.842 79.2507 166.135 79.3833 165.516 79.6483C164.898 79.9134 164.324 80.2668 163.838 80.7527C163.352 81.2386 162.999 81.7687 162.733 82.4313C162.468 83.094 162.336 83.8008 162.336 84.5517C162.336 85.3027 162.468 86.0095 162.733 86.6721C162.999 87.3348 163.352 87.8649 163.838 88.3508C164.324 88.8367 164.854 89.1901 165.516 89.4552C166.135 89.7202 166.842 89.8527 167.593 89.8527C168.344 89.8527 169.051 89.7202 169.669 89.4552C170.287 89.1901 170.862 88.8367 171.348 88.3508C171.834 87.8649 172.187 87.3348 172.452 86.6721C172.717 86.0095 172.85 85.3027 172.85 84.5517C172.85 83.8008 172.717 83.0498 172.452 82.4313ZM171.436 86.1862C171.259 86.7163 170.994 87.1581 170.597 87.5556C170.199 87.9532 169.801 88.2624 169.316 88.5275C168.785 88.7484 168.211 88.8809 167.593 88.8809C166.93 88.8809 166.356 88.7484 165.87 88.5275C165.34 88.3066 164.942 87.9532 164.589 87.5556C164.235 87.1581 163.97 86.7163 163.749 86.1862C163.573 85.6561 163.484 85.126 163.484 84.5517C163.484 83.9775 163.573 83.4032 163.749 82.9173C163.926 82.3872 164.191 81.9454 164.589 81.5478C164.986 81.1503 165.384 80.841 165.87 80.576C166.4 80.3551 166.974 80.2226 167.593 80.2226C168.255 80.2226 168.83 80.3551 169.316 80.576C169.846 80.7969 170.243 81.1503 170.597 81.5478C170.95 81.9454 171.215 82.3872 171.436 82.9173C171.613 83.4474 171.701 83.9775 171.701 84.5517C171.701 85.126 171.657 85.6561 171.436 86.1862ZM151.69 79.5158H150.409V89.5877H151.425V80.9736H151.469L157.477 89.5877H158.758V79.5158H157.742V88.0416H157.698L151.69 79.5158ZM146.389 82.4313C146.124 81.7687 145.77 81.2386 145.284 80.7527C144.798 80.2668 144.268 79.9134 143.606 79.6483C142.987 79.3833 142.28 79.2507 141.529 79.2507C140.778 79.2507 140.072 79.3833 139.453 79.6483C138.835 79.9134 138.261 80.2668 137.775 80.7527C137.289 81.2386 136.935 81.7687 136.67 82.4313C136.405 83.094 136.273 83.8008 136.273 84.5517C136.273 85.3027 136.405 86.0095 136.67 86.6721C136.935 87.3348 137.289 87.8649 137.775 88.3508C138.261 88.8367 138.791 89.1901 139.453 89.4552C140.072 89.7202 140.778 89.8527 141.529 89.8527C142.28 89.8527 142.987 89.7202 143.606 89.4552C144.224 89.1901 144.798 88.8367 145.284 88.3508C145.77 87.8649 146.124 87.3348 146.389 86.6721C146.654 86.0095 146.786 85.3027 146.786 84.5517C146.786 83.8008 146.654 83.0498 146.389 82.4313ZM145.417 86.1862C145.24 86.7163 144.975 87.1581 144.578 87.5556C144.224 87.9532 143.782 88.2624 143.296 88.5275C142.811 88.7925 142.192 88.8809 141.574 88.8809C140.911 88.8809 140.337 88.7484 139.851 88.5275C139.321 88.3066 138.923 87.9532 138.57 87.5556C138.216 87.1581 137.951 86.7163 137.73 86.1862C137.554 85.6561 137.465 85.126 137.465 84.5517C137.465 83.9775 137.554 83.4032 137.73 82.9173C137.907 82.3872 138.172 81.9454 138.57 81.5478C138.923 81.1503 139.365 80.841 139.851 80.576C140.381 80.3551 140.955 80.2226 141.574 80.2226C142.236 80.2226 142.811 80.3551 143.296 80.576C143.782 80.7969 144.224 81.1503 144.578 81.5478C144.931 81.9454 145.196 82.3872 145.417 82.9173C145.594 83.4474 145.682 83.9775 145.682 84.5517C145.682 85.126 145.594 85.6561 145.417 86.1862ZM128.012 84.9051H129.735L132.474 89.5877H133.71L130.795 84.8168C131.634 84.7284 132.253 84.4634 132.694 83.9775C133.136 83.4915 133.357 82.9173 133.357 82.2105C133.357 81.327 133.048 80.6202 132.474 80.1784C131.899 79.7367 131.06 79.5158 130.044 79.5158H126.952V89.5877H127.968V84.9051H128.012ZM128.012 80.4435H129.823C130.265 80.4435 130.662 80.4876 130.972 80.576C131.281 80.6643 131.546 80.7969 131.723 80.9736C131.899 81.1503 132.032 81.327 132.12 81.5478C132.209 81.7687 132.253 81.9896 132.253 82.2105C132.253 82.4755 132.209 82.6964 132.12 82.9173C132.032 83.1381 131.899 83.3148 131.723 83.4915C131.546 83.6682 131.281 83.7566 130.972 83.8891C130.662 83.9775 130.265 84.0216 129.823 84.0216H128.012V80.4435ZM122.578 80.6202C122.137 80.1784 121.607 79.825 121.032 79.6041C120.458 79.3833 119.751 79.2507 118.956 79.2507C118.205 79.2507 117.498 79.3833 116.88 79.6483C116.261 79.9134 115.687 80.2668 115.201 80.7527C114.715 81.2386 114.362 81.7687 114.097 82.4313C113.832 83.094 113.699 83.8008 113.699 84.5517C113.699 85.3027 113.832 86.0095 114.097 86.6721C114.362 87.3348 114.715 87.8649 115.201 88.3508C115.687 88.8367 116.217 89.1901 116.88 89.4552C117.498 89.7202 118.205 89.8527 118.956 89.8527C119.574 89.8527 120.237 89.7644 120.9 89.5877C121.562 89.411 122.181 89.1459 122.755 88.8367V83.8891H119.309V84.8168H121.695V88.1741C121.297 88.395 120.9 88.5717 120.414 88.7042C119.928 88.8367 119.442 88.8809 118.912 88.8809C118.249 88.8809 117.675 88.7484 117.189 88.5275C116.659 88.3066 116.261 87.9532 115.908 87.5556C115.555 87.1581 115.29 86.7163 115.069 86.1862C114.848 85.6561 114.804 85.126 114.804 84.5517C114.804 83.9775 114.892 83.4032 115.069 82.9173C115.245 82.3872 115.51 81.9454 115.908 81.5478C116.261 81.1503 116.703 80.841 117.189 80.576C117.719 80.3551 118.293 80.2226 118.912 80.2226C119.53 80.2226 120.105 80.3109 120.546 80.5318C121.032 80.7527 121.43 81.0177 121.783 81.3711L122.578 80.6202ZM104.025 86.9372H109.149L110.254 89.5877H111.446L107.073 79.5158H106.057L101.684 89.5877H102.876L104.025 86.9372ZM106.587 80.7085L108.752 86.0095H104.378L106.587 80.7085Z" fill="currentColor"></path></svg>