<svg xmlns="http://www.w3.org/2000/svg" version="1.1" xmlns:xlink="http://www.w3.org/1999/xlink" xmlns:svgjs="http://svgjs.dev/svgjs" width="343.09067" height="343.07733"><svg version="1.1" id="SvgjsSvg1111" width="343.09067" height="343.07733" viewBox="0 0 343.09067 343.07733" sodipodi:docname="hutton-favicon.svg" inkscape:version="1.4 (86a8ad7, 2024-10-11)" xmlns:inkscape="http://www.inkscape.org/namespaces/inkscape" xmlns:sodipodi="http://sodipodi.sourceforge.net/DTD/sodipodi-0.dtd" xmlns="http://www.w3.org/2000/svg" xmlns:svg="http://www.w3.org/2000/svg">
  <defs id="SvgjsDefs1110"></defs>
  <sodipodi:namedview id="SvgjsSodipodi:namedview1109" pagecolor="#ffffff" bordercolor="#000000" borderopacity="0.25" inkscape:showpageshadow="2" inkscape:pageopacity="0.0" inkscape:pagecheckerboard="0" inkscape:deskcolor="#d1d1d1" inkscape:zoom="0.60131285" inkscape:cx="42.40721" inkscape:cy="420.74604" inkscape:window-width="1718" inkscape:window-height="1360" inkscape:window-x="-7" inkscape:window-y="0" inkscape:window-maximized="0" inkscape:current-layer="g8"></sodipodi:namedview>
  <g id="SvgjsG1108" inkscape:groupmode="layer" inkscape:label="ink_ext_XXXXXX" transform="matrix(1.3333333,0,0,-1.3333333,0,343.07732)">
    <g id="SvgjsG1107">
      <path d="m 121.735,217.855 c 19.782,-11.237 42.061,-16.936 66.221,-16.936 h 0.005 c 31.803,0 58.496,9.919 69.357,14.613 v 14.629 c -0.033,2.749 -0.981,27.147 -26.377,27.147 H 26.3766 C 23.707,257.29 0,256.297 0,230.161 v -4.521 c 12.3934,5.02 31.1547,10.569 53.6996,10.569 23.6981,0 46.5924,-6.172 68.0354,-18.354" style="fill:#74a82b;fill-opacity:1;fill-rule:nonzero;stroke:none;stroke-width:0.1" id="SvgjsPath1106"></path>
      <path d="M 216.507,104.837 V 0 h 14.408 c 2.742,0.0269531 26.402,1.04297 26.402,27.148 v 89.003 c -8.99,-3.605 -23.306,-8.46 -40.81,-11.314" style="fill:#74a82b;fill-opacity:1;fill-rule:nonzero;stroke:none;stroke-width:0.1" id="SvgjsPath1105"></path>
      <path d="m 187.966,102.471 h -0.007 c -8.74,0 -17.253,0.707 -25.519,2.094 V 0.00117188 h 41.19 V 103.196 c -5.045,-0.466 -10.276,-0.725 -15.664,-0.725" style="fill:#74a82b;fill-opacity:1;fill-rule:nonzero;stroke:none;stroke-width:0.1" id="SvgjsPath1104"></path>
      <path d="m 116.351,120.829 c -2.639,1.498 -5.304,2.891 -7.982,4.195 V 0.00195313 h 41.193 V 107.317 c -11.647,3.06 -22.747,7.566 -33.211,13.512" style="fill:#74a82b;fill-opacity:1;fill-rule:nonzero;stroke:none;stroke-width:0.1" id="SvgjsPath1103"></path>
      <path d="M 54.2961,137.755 V 0 h 41.1984 v 130.441 c -13.33,4.785 -27.114,7.25 -41.1984,7.314" style="fill:#821a74;fill-opacity:1;fill-rule:nonzero;stroke:none;stroke-width:0.1" id="SvgjsPath1102"></path>
      <path d="M 0.00351563,126.82 V 27.15 C 0.0304688,24.402 0.976953,0.00195313 26.3785,0.00195313 h 15.043 V 137.155 C 23.8707,135.502 9.43008,130.756 0.00351563,126.82" style="fill:#821a74;fill-opacity:1;fill-rule:nonzero;stroke:none;stroke-width:0.1" id="SvgjsPath1101"></path>
      <path d="m 121.735,174.155 c 19.782,-11.236 42.061,-16.935 66.221,-16.935 h 0.005 c 31.81,0 58.503,9.919 69.357,14.613 v 31.869 c -13.507,-5.413 -39.065,-13.681 -69.357,-13.681 h -0.005 c -26.074,0 -50.159,6.172 -71.601,18.355 -19.7835,11.238 -40.8679,16.937 -62.6554,16.937 -23.4641,0 -42.6484,-6.62 -53.6996,-11.548 v -31.817 c 12.3934,5.018 31.1691,10.563 53.6996,10.563 23.6981,0 46.5924,-6.173 68.0354,-18.356" style="fill:#74a82b;fill-opacity:1;fill-rule:nonzero;stroke:none;stroke-width:0.1" id="SvgjsPath1100"></path>
      <path d="m 121.735,130.307 c 19.782,-11.237 42.061,-16.936 66.226,-16.936 31.789,0 58.484,9.914 69.357,14.615 v 32.017 c -13.507,-5.421 -39.065,-13.682 -69.357,-13.687 h -0.005 c -26.074,0 -50.159,6.178 -71.601,18.36 -19.7835,11.238 -40.8679,16.938 -62.6554,16.938 -23.4641,0 -42.6484,-6.62 -53.6996,-11.555 v -31.957 c 12.3984,5.017 31.1746,10.562 53.6996,10.562 23.6981,0 46.5924,-6.174 68.0354,-18.357" style="fill:#67a0c0;fill-opacity:1;fill-rule:nonzero;stroke:none;stroke-width:0.1" id="SvgjsPath1099"></path>
    </g>
  </g>
</svg><style>@media (prefers-color-scheme: light) { :root { filter: none; } }
@media (prefers-color-scheme: dark) { :root { filter: none; } }
</style></svg>